<svg version="1.2" xmlns="http://www.w3.org/2000/svg" viewBox="0 0 200 200" width="400" height="400">
	<title>0</title>
	<style>
		.s0 { fill: #000000 } 
		.s1 { fill: #ffffff } 
	</style>
	<g id="Background">
		<path id="Path 0" fill-rule="evenodd" class="s0" d="m92.3 20.1c3.7-0.1 6.9 0.2 7.1 0.6 0.2 0.5 3.4 2.1 7.2 3.8 3.8 1.6 8.9 4.2 11.4 5.8 2.5 1.5 6.1 4.3 8 6 2.7 2.5 3.8 4.7 4.9 9.2 0.7 3.3 1.7 7.5 2.2 9.3 0.5 1.7 1.3 3.2 1.9 3.2 0.6 0 1 0.7 1 1.5 0 0.8 3.3 4.4 7.3 7.9 5.7 5.1 6.8 6.6 5.5 7-1 0.4-3.3-0.3-5-1.3-1.8-1.1-5.3-2.8-12.3-5.8l-0.2 2.8c-0.2 2.1 0.2 3 1.4 3.1 1.6 0.3 1.6 0.4 0 2-0.9 1-1.7 2.9-1.7 4.3 0 1.5 0.8 2.9 2 3.5 1.1 0.5 1.8 1.5 1.5 2-0.3 0.5-1.4 1-2.5 1-1.5 0-2 0.7-2 2.5 0 1.4-0.7 5.3-1.5 8.7-0.8 3.5-2.3 8.5-3.4 11.3-1.1 2.7-3.1 6.5-4.5 8.2-1.4 1.8-3.2 3.3-3.8 3.3-0.8 0-1.7-2.2-2.3-5.2-0.9-4.9-1.2-5.3-3.5-5-1.4 0.2-4.2 0.5-6.2 0.5-2.3 0.1-3.8 0.7-3.8 1.4 0 0.7 0.5 2.4 1 3.8 0.6 1.5 1.8 2.5 3 2.5 1.1 0 3.7 0.9 5.8 1.9 2 1.1 4.9 3.2 6.4 4.8 1.4 1.5 4.5 6.1 6.7 10.1 3 5.3 4.4 9.1 5.2 14.5 0.5 3.9 1.2 7.5 1.5 8 0.2 0.4 0.9 8.2 1.4 17.4 0.6 9.3 1.2 18.7 1.5 21.1 0.4 2.9 0.1 4.2-0.7 4.2-0.8 0-1.8-2.7-2.5-7.2-0.7-4-1.4-12.5-1.5-19-0.2-6.4-0.5-11.9-0.8-12.3-0.3-0.3-2.9-0.4-5.7-0.1-4.4 0.5-5.4 1-5.9 2.9-0.3 1.2-0.1 3.8 0.5 5.7 0.5 1.9 2 4.4 3.1 5.5 1.1 1.1 2.1 3.2 2 4.8 0 1.5-0.7 3.7-1.5 5-1.3 2-1.3 2.9 0 8.5 1.5 6 1.4 6.2-0.5 6.2-1.6 0-2.1-0.8-2.5-4.5-0.3-2.5-0.7-4.5-1-4.5-0.3 0-2 1.4-3.7 3.1-1.8 1.6-4.5 3.7-6 4.5-1.6 0.8-4.3 1.3-9.3 0.9l5.3-2.8c2.8-1.5 7.5-5.1 10.2-7.9 2.8-2.9 5.3-6.2 5.6-7.3 0.3-1.2-0.5-3.4-2.1-5.5-1.4-1.9-2.9-5.4-3.3-7.8-0.5-3.3-1-4.1-2.2-3.6-0.8 0.4-5.1 0.9-9.5 1.2-4.8 0.3-10 0-13-0.8-2.7-0.6-6.3-2.3-11-5.9l-0.7 5.2c-0.4 2.9-2.1 7.9-3.8 11.2-2.7 5.3-2.8 6.2-1.5 7.5 0.8 0.8 1.5 1.9 1.5 2.5 0 0.6 1.5 2.8 3.3 5 1.8 2.2 5.4 5 8 6.3 2.6 1.2 4.7 2.4 4.7 2.7 0 0.3-1.6 0.5-3.5 0.5-2.7 0-4.5-1-8.2-4.3-2.7-2.4-5.6-6-6.5-8-1-2-2.2-3.7-2.8-3.7-0.5 0-1.2 1.5-1.4 3.3-0.3 1.7-0.7 5.3-1 8-0.4 3.3-1.1 4.7-2.1 4.7-1.2 0-1.4-1.2-0.9-6.7 0.3-3.8 2.1-11.3 3.8-16.8 1.8-5.5 4-11.5 4.9-13.2 1-1.8 1.7-3.7 1.7-4.3 0-0.6-2.7-0.9-13.5-0.5l-3.7 14.5c-2.3 8.9-3.7 16.9-3.8 20.8 0 5.2-0.3 6.2-1.7 6.2-1.6 0-1.7-0.8-1.1-8.7 0.4-4.9 1.8-13.5 3.2-19.3 1.4-5.8 2.8-11.5 3.1-12.7 0.3-1.6 0-2.3-1-2.3-0.8 0-1.8-0.6-2.1-1.2-0.3-0.7-0.1-2.9 0.5-4.8 0.8-2.7 0.8-3.8-0.2-4.8-1-1.1-0.7-3 1.3-9.4 1.4-4.4 3-8.4 3.5-8.7 0.6-0.4 3.5-1.3 6.5-2.1 3-0.7 6.7-2 10.8-4.5l-5.1-4.6c-3.3-2.9-7.5-8.5-11.4-15-3.5-5.7-6.3-11-6.3-11.7 0-0.9-1.2-1-4.2-0.5-2.4 0.4-5.2 0.7-6.3 0.7-1.1 0.1-2.2-0.4-2.5-0.9-0.2-0.5 2.2-2.2 11-6.5l-0.6-8.8c-0.5-6.4-0.2-11 1.1-17.2 0.9-4.7 3.3-11.5 5.1-15.3 1.9-3.7 5.1-8.4 7.2-10.5 2.1-2.3 5.8-4.6 8.7-5.7 2.8-0.9 7-2.5 9.5-3.5 2.7-1.1 7.2-1.9 11.3-1.9zm-19.6 80.9c0.4 0.3 0.9 2 1.1 3.7 0.1 1.8 1.5 5.3 3.2 7.8 2.7 4.1 3.2 4.4 4.8 3 0.9-0.8 2.3-1.5 3-1.5 0.6 0 1.4-1 1.7-2.3 0.3-1.2 0.5-3.2 0.5-4.5q0-2.2-1.7-2.2c-1 0-3.1-1-4.7-2.2-1.6-1.3-4-4.1-5.5-6.3-1.4-2.2-2.9-4.7-3.4-5.5-0.4-0.8-0.5 1-0.3 4 0.3 3 0.8 5.7 1.3 6z"/>
		<path id="Path 1" class="s1" d="m59 148.6c0.8 0.4 4.2 0.9 7.5 1.2 3.3 0.2 6.3 1 6.7 1.6 0.4 0.6 0.8 1.7 0.8 2.4 0 0.9-2.2 1.1-8.4 1-4.6-0.2-8.7-0.5-9-0.8-0.4-0.3-0.3-1.8 0.1-3.3 0.5-2.1 1.1-2.6 2.3-2.1z"/>
		<path id="Path 2" class="s1" d="m76.5 123c0.3 0 2.5 1.1 5 2.5 2.5 1.4 5.1 2.4 5.8 2.3 0.6-0.2 2.8 0.9 4.7 2.3 1.9 1.4 5.8 3.9 8.5 5.4 3.1 1.7 5.7 2.6 6.8 2.2 1-0.4 1.7-1.7 1.7-3.2 0-1.4-0.7-4.2-1.5-6.3-0.9-2-1.5-4-1.5-4.5 0-0.4 1-0.4 2.3-0.1 1.2 0.3 3.9 2.3 6 4.3 2.1 2 4.9 5.8 6.3 8.6 1.7 3.5 2.4 6.7 2.4 10.5 0 3-0.6 6.4-1.3 7.5-0.8 1.1-4.3 3.3-7.8 5-4.6 2.1-8.4 3-13.4 3.3-3.8 0.2-8.9-0.1-11.3-0.7-2.3-0.6-5.6-2.1-7.3-3.3-1.7-1.3-3.6-3.6-4.3-5.3-0.7-1.7-1.6-4.5-1.9-6.3-0.4-1.8 0-5.8 0.9-9.4 0.8-3.5 1.2-7 0.9-7.8q-0.5-1.5-1.5-0.5c-0.5 0.6-1.6 3.6-2.5 6.8-0.8 3.1-1.5 6.8-1.5 8.2 0 2.2-0.4 2.5-3.7 2.5-2.1 0-5.5-0.6-7.6-1.3-3.1-1-3.7-1.7-3.6-3.7 0-1.4 0.6-4.5 1.2-6.9 1.2-4.2 1.4-4.4 6.7-5.8 3-0.7 6.7-1.9 8.3-2.6 1.5-0.7 2.7-1.8 2.7-2.4 0-0.7 0.2-1.3 0.5-1.3z"/>
		<path id="Path 3" class="s1" d="m88.7 121.9l13.5 0.6 1.9 5.5c1 3 1.8 5.8 1.7 6.2-0.2 0.4-3.4-1.2-7.2-3.5-3.8-2.3-7.6-5.2-8.4-6.5z"/>
		<path id="Path 4" class="s1" d="m86.8 117.1c0.4 0 1.6 0.4 2.7 0.9 1.8 0.8 1.7 0.9-0.7 0.9-1.6 0.1-2.8-0.3-2.8-0.9 0-0.5 0.3-1 0.8-0.9z"/>
		<path id="Path 5" class="s1" d="m83.6 114c0.2 0 0.4 0.1 0.4 0.3 0.1 0.1-1 1.1-4.5 4.2l1.9-2.3c1-1.2 2.1-2.2 2.2-2.2z"/>
		<path id="Path 6" class="s1" d="m89.9 106.2l4.1 1.7c3.8 1.5 4.1 1.8 3.4 4.6-0.3 1.7-0.7 3.1-0.8 3.3 0 0.1-1.7 0-3.6-0.3-3.4-0.6-3.5-0.7-3.3-4.9z"/>
		<path id="Path 7" class="s1" d="m124.5 98.3c0 0.2-0.8 3.1-1.9 6.3-1.1 3.2-2.5 6.8-4.5 9.9l-0.7-2c-0.3-1.1-1-3-1.5-4.2-0.8-2-0.4-2.7 2.8-5 2.1-1.5 4.2-3.3 4.7-4.1 0.5-0.7 1-1.2 1.1-0.9z"/>
		<path id="Path 8" class="s1" d="m76.4 98c0.5 0 1.7 0.9 2.5 2 0.9 1.2 1.4 2.1 1.1 2.1-0.3 0-1.4-1-2.5-2.1-1.1-1.1-1.6-2.1-1.1-2z"/>
		<path id="Path 9" class="s1" d="m69.4 82c0.1 0-0.2 1.9-0.7 4.3-0.5 2.3-0.6 6.9-0.2 10.2 0.3 3.3 0.7 7.6 0.8 9.6 0.1 2 0.9 4.3 1.7 5.3 0.8 0.9 1.1 2 0.7 2.4-0.4 0.4-1.6-0.2-2.7-1.3-1-1.1-4.6-6.5-8-12-3.3-5.5-6-10.7-6-11.5 0-0.8 0.6-1.6 1.2-1.7 0.7-0.1 3.3-0.8 5.8-1.5 2.5-0.7 5.1-1.8 5.8-2.5 0.7-0.7 1.5-1.3 1.6-1.3z"/>
		<path id="Path 10" class="s1" d="m109.1 53c0.5 0 1.1 0.6 1.2 1.3 0.2 0.6 3.8 3.2 8 5.7 4.8 2.8 7.6 5.1 7.7 6.3 0 1.6-0.2 1.5-3-0.3-1.7-1.1-3.7-1.8-4.5-1.5-0.8 0.3-1.5 0.8-1.5 1.3 0.1 0.4 1.9 1.9 4 3.4 2.2 1.6 4 3.5 4 4.3 0 0.8 0.5 1.5 1 1.5 0.6 0 1.2 0.9 1.5 2 0.3 1.1-0.3 3.2-1.2 4.7-1.3 1.9-1.5 2.7-0.5 3 0.9 0.2 0.9 1 0.1 3-0.5 1.6-2.3 4.5-4 6.5-1.6 2.1-2.9 4.1-2.9 4.5 0.1 0.5-2.9 2.7-13 9.3l-4.5-2c-2.5-1.1-5.1-2-5.7-2-0.7 0-4.1-1.6-7.5-3.5-3.5-1.9-7.8-5-9.5-6.9-2.1-2.1-3.8-5.2-4.5-8.5-0.7-2.8-1.3-5.6-1.3-6.1 0-0.5 1.9-1.3 4.3-1.6 2.4-0.4 4.9-1.6 6-2.8 1.7-2.1 1.7-2.1 1.1 0.9-0.3 1.7-2 4.2-3.8 5.7-1.7 1.5-2.9 2.8-2.6 2.9 0.3 0.1 2.6 0.2 9.7 0.4l-0.4-3.5c-0.4-2.6 0.2-4.4 1.9-7 1.3-1.9 4.1-4.4 6.3-5.5 2.2-1.1 4.2-2.1 4.5-2.3 0.3-0.2-0.2-0.9-1.2-1.5-1.4-1.1-1.2-1.5 1.9-3.7 2-1.4 4.4-3.7 5.5-5.3 1.1-1.5 2.3-2.7 2.9-2.7z"/>
		<path id="Path 11" class="s0" d="m100.8 95.2c0.8 0.7 3.6 1.2 6.1 1.2 2.5-0.1 5.5-0.3 6.5-0.5 1-0.2 2 0.2 2.2 0.8 0.2 0.7-0.8 1.8-2.3 2.4-1.6 0.6-5 0.8-7.8 0.5-2.7-0.3-5.6-1.2-6.4-1.9-0.7-0.6-1-1.8-0.6-2.5 0.7-1.1 1.1-1.1 2.3 0zm19.1-23.2c0.3-0.1 1.5 0.8 2.6 1.9 1.8 1.8 1.8 2.2 0.5 3.6-0.8 0.9-2.3 1.6-3.2 1.5-1 0-2-1-2.2-2.3-0.3-1.2 0-2.8 0.6-3.5 0.5-0.6 1.3-1.2 1.7-1.2zm-9.3 1.5c0.8 1.1 1.4 2.8 1.4 3.7 0 1 1.5 3.4 6.5 9l-2.7 2.4c-1.6 1.3-3.5 2.4-4.3 2.4-0.8 0-1.5-0.5-1.5-1 0-0.6 0.8-1.6 1.9-2.3 1.8-1.2 1.8-1.2-0.1-3.2-1-1.1-2.3-3.8-2.9-6-0.6-2.2-0.7-4.7-0.4-5.5 0.5-1.2 0.9-1.2 2.1 0.5zm-11.6-1.3c0.9 0.2 1.5 1.4 1.5 3.3 0 2.5-0.4 3-2.4 3-1.3 0-2.9-0.8-3.5-1.8-0.9-1.5-0.7-2.1 0.9-3.3 1.1-0.8 2.6-1.3 3.5-1.2z"/>
		<path id="Path 12" class="s1" d="m94 23c1.1 0 5 1.2 8.8 2.7 3.7 1.5 8.3 3.8 10.2 5.2 1.9 1.4 3.8 3.2 4.3 3.8 0.4 0.7 1.2 1.1 1.7 0.8 0.5-0.3 2.1 0.5 3.5 1.7 1.4 1.3 2.5 3.2 2.5 4.3 0 1.8-0.2 1.8-2-0.5-1.5-2-2.2-2.2-3.2-1.3-1.1 0.9-0.6 2.4 2.6 7.5 2.2 3.5 5.3 7.4 6.9 8.8 1.8 1.5 2.8 3 2.4 3.7q-0.7 1.3-4 0.6c-1.7-0.3-5.5-2-8.4-3.7-2.8-1.7-5.9-4.1-6.7-5.4-0.9-1.2-1.4-2.7-1.1-3.2 0.3-0.5-0.1-1.4-0.7-1.9-0.7-0.6-1.8-0.7-2.4-0.3-0.6 0.4-1.4 1.6-1.7 2.7-0.3 1.1-2.4 3.9-4.6 6.3-2.3 2.3-4.6 4-5.1 3.7-0.5-0.3-1.2 0.6-1.5 2-0.4 1.8-1.8 3.1-4.8 4.4-2.3 1.1-4.9 2.7-5.7 3.6-1.2 1.3-1.7 1.3-2.2 0.3-0.6-0.9-0.8-0.8-0.8 0.4 0 1.1-2 3-4.8 4.7-2.6 1.6-6.5 3.8-8.7 4.9-2.2 1.1-4.9 2.3-6 2.6-1.2 0.3 1-2.6 5.3-7.2 4.5-4.7 8.5-10.1 10.2-13.7 1.6-3.3 3-7.1 3.2-8.5 0.2-1.6-0.2-2.5-1.1-2.5-0.7 0-2.4 2.7-3.7 6-1.3 3.3-4.8 8.9-7.7 12.5-2.9 3.6-6.9 7.7-9 9.2-2 1.6-4.2 2.6-4.7 2.3-0.5-0.3-1.3-4.2-1.6-8.8-0.4-5.1-0.1-10.5 0.6-14.2 0.7-3.3 2.2-7.9 3.4-10.3 1.1-2.3 2.6-4.2 3.1-4.2 0.5 0 1.9-1.4 3-3.2 1-1.8 2.8-4.1 4-5 1.1-0.9 4.7-3.1 7.9-4.8 4.6-2.3 7.3-3 11.8-3 4.7 0 5.7-0.3 5.3-1.5-0.2-1 0.3-1.5 1.5-1.5z"/>
		<path id="Path 13" class="s1" d="m64.6 28c0.2 0 0.4 0.1 0.4 0.3 0.1 0.1-1 1.1-4.5 4.2l1.9-2.3c1-1.2 2.1-2.2 2.2-2.2z"/>
		<path id="Path 14" class="s1" d="m122.6 32c0.4 0 1.8 1.5 5.9 6.5l-3.3-3c-1.8-1.6-3.2-3.1-3.2-3.3 0-0.1 0.3-0.2 0.6-0.2z"/>
		<path id="Path 15" class="s1" d="m60.6 33c0.2 0 0.4 0.1 0.4 0.3 0.1 0.1-0.7 0.9-1.7 1.7-1.7 1.4-1.7 1.4-0.4-0.2 0.7-1 1.5-1.8 1.7-1.8z"/>
		<path id="Path 16" class="s1" d="m135.5 59.5l4.8 4.5c2.6 2.5 4.7 4.6 4.7 4.8 0 0.1-0.1 0.2-0.3 0.2-0.1 0-2.2-2.1-4.7-4.7z"/>
		<path id="Path 17" class="s1" d="m146.4 69c0.5 0 1.7 0.9 2.5 2 0.9 1.2 1.4 2.1 1.1 2.1-0.3 0-1.4-1-2.5-2.1-1.1-1.1-1.6-2.1-1.1-2z"/>
		<path id="Path 18" class="s1" d="m66.4 114c0.5 0 1.8 1.1 3 2.5 1.2 1.4 1.9 2.6 1.6 2.6-0.3 0-1.6-1.2-3-2.6-1.4-1.4-2.1-2.5-1.6-2.5z"/>
		<path id="Path 19" class="s1" d="m72.7 119c0.4 0 1.2 0.8 1.8 1.8 0.9 1.5 0.8 1.6-0.8 0.2-1-0.8-1.8-1.6-1.7-1.8 0-0.1 0.3-0.2 0.7-0.2z"/>
		<path id="Path 20" class="s1" d="m115.4 122c0.5 0 1.8 1.1 3 2.5 1.2 1.4 1.9 2.6 1.6 2.6-0.3 0-1.6-1.2-3-2.6-1.4-1.4-2.1-2.5-1.6-2.5z"/>
		<path id="Path 21" class="s1" d="m124.2 133.7c0.7 0.7 1.1 1.5 0.8 1.8-0.3 0.3-0.9-0.3-1.3-1.2-0.7-1.5-0.6-1.6 0.5-0.6z"/>
		<path id="Path 22" class="s1" d="m66.5 158c3.7 0 6.5 0.4 6.5 1 0 0.6-0.7 2.5-1.7 4.3-0.9 1.7-3.1 7.7-4.9 13.2-1.7 5.5-3.5 13-4.4 23.5h-10v-6c0-3.6 1.4-11.7 3.6-20.3 2-7.8 3.8-14.5 4.1-14.9 0.2-0.5 3.3-0.8 6.8-0.8z"/>
		<path id="Path 23" class="s1" d="m77.5 159.1l3 2.3c1.7 1.3 5.3 3 8 3.6 3 0.8 8.2 1.1 13 0.8 4.4-0.3 8.7-0.8 9.5-1.2 1.2-0.5 1.7 0.3 2.2 3.6 0.4 2.4 1.9 5.9 3.3 7.8 1.6 2.1 2.4 4.3 2.1 5.5-0.3 1.1-2.7 4.3-5.3 7-2.7 2.8-7.5 6.5-10.8 8.3-3.4 1.8-7.4 3.2-9.3 3.2-1.7 0-5.5-1.2-8.4-2.7-2.8-1.6-6.6-4.6-8.5-6.8-1.8-2.2-3.3-4.4-3.3-5 0-0.6-0.7-1.7-1.5-2.5-1.3-1.3-1.2-2.2 1.5-7.5 1.7-3.3 3.4-8.3 3.8-11.2z"/>
		<path id="Path 24" class="s1" d="m125.3 161.1c1.5 0 2.7 0.2 2.8 0.7 0 0.4 0.5 7.5 1 15.7 0.5 8.3 1.1 16.7 1.9 22.5l-9.4-0.5-1.3-6c-1.1-5.2-1.1-6.3 0.2-8.2 0.8-1.3 1.5-3.5 1.5-5 0.1-1.6-0.9-3.7-2-4.8-1.1-1.1-2.6-3.6-3.1-5.5-0.6-1.9-0.8-4.5-0.3-5.7 0.4-1.3 1.8-2.3 3.3-2.6 1.4-0.2 3.8-0.5 5.4-0.6z"/>
		<path id="Path 25" class="s1" d="m68.1 184c0.5 0 1.7 1.7 2.7 3.7 0.9 2 3.8 5.6 11.2 12.3h-17l0.6-4.8c0.3-2.6 0.7-6.2 1-8 0.3-1.7 1-3.2 1.5-3.2z"/>
		<path id="Path 26" class="s1" d="m116.3 191.1c0.5-0.1 1 1.4 1.3 3.2 0.2 1.7 0.4 3.8 0.4 4.5 0 0.8-2 1.2-13.5 1.2l3-1.9c1.7-1 4.1-3 5.5-4.4 1.4-1.4 2.9-2.6 3.3-2.6z"/>
	</g>
</svg>