<svg version="1.2" xmlns="http://www.w3.org/2000/svg" viewBox="0 0 200 200" width="400" height="400">
	<title>0</title>
	<style>
		.s0 { fill: #ffffff } 
		.s1 { fill: #000000 } 
	</style>
	<g id="Background">
		<path id="Path 0" class="s0" d="m64.6 28c0.2 0 0.4 0.1 0.4 0.3 0.1 0.1-1 1.1-4.5 4.2l1.9-2.3c1-1.2 2.1-2.2 2.2-2.2zm58 4c0.4 0 1.8 1.5 5.9 6.5l-3.3-3c-1.8-1.6-3.2-3.1-3.2-3.3 0-0.1 0.3-0.2 0.6-0.2zm-62 1c0.2 0 0.4 0.1 0.4 0.2 0.1 0.2-0.7 1-1.7 1.8-1.7 1.4-1.7 1.4-0.4-0.3 0.7-0.9 1.5-1.7 1.7-1.7zm74.9 26.5l4.8 4.5c2.6 2.5 4.7 4.6 4.7 4.8 0 0.1-0.1 0.2-0.2 0.2-0.2 0-2.3-2.1-4.8-4.7zm10.9 9.4c0.5 0 1.7 1 2.5 2.1 0.9 1.1 1.4 2 1.1 2-0.3 0-1.4-0.9-2.5-2-1.1-1.2-1.6-2.1-1.1-2.1zm-80 45c0.5 0.1 1.8 1.2 3 2.6 1.2 1.4 1.9 2.5 1.6 2.5-0.3 0-1.6-1.1-3-2.5-1.4-1.4-2.1-2.6-1.6-2.6zm6.3 5.1c0.4 0 1.2 0.8 1.8 1.7 0.9 1.6 0.8 1.6-0.8 0.3-1-0.9-1.8-1.6-1.7-1.8 0-0.1 0.3-0.2 0.7-0.2zm42.7 2.9c0.5 0.1 1.8 1.2 3 2.6 1.2 1.4 1.9 2.5 1.6 2.5-0.3 0-1.6-1.1-3-2.5-1.4-1.4-2.1-2.6-1.6-2.6zm8.8 11.8c0.7 0.7 1.1 1.5 0.8 1.8-0.3 0.2-0.9-0.3-1.3-1.3-0.7-1.4-0.6-1.5 0.5-0.5zm-57.7 24.3c3.7 0 6.5 0.4 6.5 1 0 0.5-1 3-4.5 10l-4.7-4.8c-2.6-2.6-4.5-5.1-4.2-5.5 0.3-0.4 3.4-0.7 6.9-0.7zm10.9 0.7l3.1 2.5c1.6 1.4 5.3 3.1 8 3.8 3 0.8 8.2 1.1 13 0.7 4.4-0.2 8.8-0.8 9.8-1.1 1.3-0.5 1.7-0.1 1.7 2.1 0 1.5 0.9 4.3 1.9 6.3 1.1 1.9 2.6 4.5 3.3 5.7 1.2 2.2 0.9 2.8-5.7 9.4-3.8 3.8-8.6 7.9-14 10.7l-24.5-24.3 1.5-5c0.9-2.8 1.6-6.3 1.7-7.9zm47.6 2.4c2.3-0.2 2.6 0.3 3.3 5.1 0.7 5 0.6 5.4-5.8 11.7l-2.3-2.2c-1.2-1.3-2.7-3.8-3.3-5.8-0.6-1.9-0.8-4.5-0.3-5.7 0.4-1.2 1.8-2.3 3.3-2.6 1.4-0.2 3.7-0.4 5.1-0.5z"/>
		<path id="Path 1" fill-rule="evenodd" class="s1" d="m92.3 20.1c3.7-0.1 6.9 0.2 7.1 0.6 0.2 0.5 3.4 2.1 7.2 3.8 3.8 1.6 8.9 4.2 11.4 5.8 2.5 1.5 6.1 4.3 8 6 2.7 2.5 3.8 4.7 4.9 9.2 0.7 3.3 1.7 7.5 2.2 9.3 0.5 1.7 1.3 3.2 1.9 3.2 0.6 0 1 0.7 1 1.5 0 0.8 3.3 4.4 7.3 7.9 5.7 5.1 6.8 6.6 5.5 7-1 0.4-3.3-0.3-5-1.3-1.8-1.1-5.3-2.8-12.3-5.8l-0.2 2.8c-0.2 2.1 0.2 3 1.4 3.1 1.6 0.3 1.6 0.4 0 2-0.9 1-1.7 2.9-1.7 4.3 0 1.5 0.8 2.9 2 3.5 1.1 0.5 1.8 1.5 1.5 2-0.3 0.5-1.4 1-2.5 1-1.5 0-2 0.7-2 2.5 0 1.4-0.7 5.3-1.5 8.7-0.8 3.5-2.3 8.5-3.4 11.3-1.1 2.7-3.1 6.5-4.5 8.2-1.4 1.8-3.2 3.3-3.8 3.3-0.8 0-1.7-2.2-2.3-5.2-0.9-4.9-1.2-5.3-3.5-5-1.4 0.2-4.2 0.5-6.2 0.5-2.3 0.1-3.8 0.7-3.8 1.4 0 0.7 0.5 2.4 1 3.8 0.6 1.5 1.8 2.5 3 2.5 1.1 0 3.7 0.9 5.8 1.9 2 1.1 4.9 3.2 6.4 4.8 1.4 1.5 4.5 6.1 6.7 10.1 2.9 5 4.4 9.3 5.1 14 0.6 3.7 1.5 9.6 2 13.2 0.7 5.2 0.6 6.8-0.5 8-1.3 1.3-1.5 0.8-3-9.2l-5 0.7c-2.7 0.3-5.3 1.2-5.7 1.8-0.4 0.7-0.8 2-0.8 3 0 0.9 0.5 2.9 1.1 4.5 0.6 1.5 2 3.7 3.2 4.9 1.8 1.8 2 2.5 1 3.8-1.1 1.3-1.7 0.8-4.5-3.2-1.7-2.7-3.4-6.5-3.7-8.6-0.5-2.9-1-3.6-2.1-3.1-0.8 0.4-5.1 0.9-9.5 1.2-4.8 0.3-10 0-13-0.8-2.7-0.6-6.3-2.3-11-5.9l-0.7 4.7c-0.3 2.6-1.2 6-2.9 10.7l-5.4-5.5 2.3-4.5c1.2-2.5 2.2-4.9 2.2-5.5 0-0.6-3-0.9-7.4-0.7-7.1 0.2-7.6 0.1-10.5-2.8-2.5-2.5-2.8-3.4-2-5.5 0.6-1.8 0.5-2.9-0.3-3.8-1.1-1.1-0.8-2.9 1.2-9.4 1.4-4.4 3-8.4 3.5-8.7 0.6-0.4 3.5-1.3 6.5-2.1 3-0.7 6.7-2 10.8-4.5l-5.1-4.6c-3.3-2.9-7.5-8.5-11.4-15-3.5-5.7-6.3-11-6.3-11.7 0-0.9-1.2-1-4.2-0.5-2.4 0.4-5.2 0.7-6.3 0.7-1.1 0.1-2.2-0.4-2.5-0.9-0.2-0.5 2.2-2.2 11-6.5l-0.6-8.8c-0.5-6.4-0.2-11 1.1-17.2 0.9-4.7 3.3-11.5 5.1-15.3 1.9-3.7 5.1-8.4 7.2-10.5 2.1-2.3 5.8-4.6 8.7-5.7 2.8-0.9 7-2.5 9.5-3.5 2.7-1.1 7.2-1.9 11.3-1.9zm-19.6 80.9c0.4 0.3 0.9 2 1.1 3.7 0.1 1.8 1.5 5.3 3.2 7.8 2.7 4.1 3.2 4.4 4.8 3 0.9-0.8 2.3-1.5 3-1.5 0.6 0 1.4-1 1.7-2.3 0.3-1.2 0.5-3.2 0.5-4.5q0-2.2-1.7-2.2c-1 0-3.1-1-4.7-2.2-1.6-1.3-4-4.1-5.5-6.3-1.4-2.2-2.9-4.7-3.4-5.5-0.4-0.8-0.5 1-0.3 4 0.3 3 0.8 5.7 1.3 6zm31.2 95.1c0.2-0.1-0.5 0.8-1.5 1.9-1.1 1.2-2.2 2.1-2.6 2-0.5 0-0.9-0.4-1-0.8-0.1-0.5 0.9-1.4 2.2-2 1.4-0.6 2.7-1.1 2.9-1.1z"/>
		<path id="Path 2" fill-rule="evenodd" class="s0" d="m94 23c1.1 0 5 1.2 8.8 2.7 3.7 1.5 8.3 3.8 10.2 5.2 1.9 1.4 3.8 3.2 4.3 3.8 0.4 0.7 1.2 1.1 1.7 0.8 0.5-0.3 2.1 0.5 3.5 1.7 1.4 1.3 2.5 3.2 2.5 4.3 0 1.8-0.2 1.8-2-0.5-1.5-2-2.2-2.2-3.2-1.3-1.1 0.9-0.6 2.4 2.6 7.5 2.2 3.5 5.3 7.4 6.9 8.8 1.8 1.5 2.8 3 2.4 3.7q-0.7 1.3-4 0.6c-1.7-0.3-5.5-2-8.4-3.7-2.8-1.7-5.9-4.1-6.7-5.4-0.9-1.2-1.4-2.7-1.1-3.2 0.3-0.5-0.1-1.4-0.7-1.9-0.7-0.6-1.8-0.7-2.4-0.3-0.6 0.4-1.4 1.6-1.7 2.7-0.3 1.1-2.4 3.9-4.6 6.3-2.3 2.3-4.6 4-5.1 3.7-0.5-0.3-1.2 0.6-1.5 2-0.4 1.8-1.8 3.1-4.8 4.4-2.3 1.1-4.9 2.7-5.7 3.6-1.2 1.3-1.7 1.3-2.2 0.3-0.6-0.9-0.8-0.8-0.8 0.4 0 1.1-2 3-4.8 4.7-2.6 1.6-6.5 3.8-8.7 4.9-2.2 1.1-4.9 2.3-6 2.6-1.2 0.3 1-2.6 5.3-7.2 4.5-4.7 8.5-10.1 10.2-13.7 1.6-3.3 3-7.1 3.2-8.5 0.2-1.6-0.2-2.5-1.1-2.5-0.7 0-2.4 2.7-3.7 6-1.3 3.3-4.8 8.9-7.7 12.5-2.9 3.6-6.9 7.7-9 9.2-2 1.6-4.2 2.6-4.7 2.3-0.5-0.3-1.3-4.2-1.6-8.8-0.4-5.1-0.1-10.5 0.6-14.2 0.7-3.3 2.2-7.9 3.4-10.3 1.1-2.3 2.6-4.2 3.1-4.2 0.5 0 1.9-1.4 3-3.2 1-1.8 2.8-4.1 4-5 1.1-0.9 4.7-3.1 7.9-4.8 4.6-2.3 7.3-3 11.8-3 4.7 0 5.7-0.3 5.3-1.5-0.2-1 0.3-1.5 1.5-1.5zm15.1 30c0.5 0 1.1 0.6 1.2 1.2 0.2 0.7 3.8 3.3 8 5.8 4.8 2.8 7.6 5.1 7.7 6.3 0 1.6-0.2 1.5-3-0.3-1.7-1.1-3.7-1.8-4.5-1.5-0.8 0.3-1.5 0.8-1.5 1.3 0.1 0.4 1.9 1.9 4 3.5 2.2 1.5 4 3.4 4 4.2 0 0.8 0.5 1.5 1 1.5 0.5 0 1.2 0.9 1.5 2 0.3 1.1-0.3 3.2-1.3 4.7-1.2 1.9-1.4 2.7-0.5 3 1 0.2 1 1 0.2 3-0.5 1.6-2.3 4.5-4 6.5-1.6 2.1-2.9 4.1-2.9 4.5 0.1 0.5-2.9 2.7-13 9.3l-4.5-2c-2.5-1.1-5.1-2-5.8-2-0.6 0-4-1.6-7.5-3.5-3.4-1.9-7.7-5-9.5-6.9-2-2.1-3.7-5.2-4.5-8.5-0.6-2.8-1.2-5.6-1.2-6.1 0-0.5 1.9-1.3 4.3-1.6 2.4-0.4 4.9-1.6 6-2.8 1.7-2.1 1.7-2.1 1.1 0.9-0.3 1.7-2 4.2-3.8 5.7-1.7 1.5-2.9 2.8-2.6 2.9 0.3 0.1 2.6 0.2 9.7 0.4l-0.4-3.5c-0.4-2.6 0.2-4.4 1.9-7 1.3-1.9 4.1-4.4 6.3-5.5 2.2-1.1 4.2-2.1 4.5-2.3 0.3-0.2-0.2-0.9-1.2-1.5-1.4-1.1-1.2-1.5 1.9-3.7 2-1.4 4.4-3.7 5.5-5.3 1.1-1.5 2.3-2.7 2.9-2.7zm-39.7 29c0.1 0-0.2 1.9-0.7 4.2-0.5 2.4-0.6 7-0.2 10.3 0.3 3.3 0.7 7.6 0.8 9.6 0.1 2 0.9 4.3 1.7 5.3 0.8 0.9 1.1 2 0.7 2.4-0.4 0.4-1.6-0.2-2.7-1.3-1-1.1-4.6-6.5-8-12-3.3-5.5-6-10.7-6-11.5 0-0.8 0.6-1.6 1.3-1.7 0.6-0.1 3.2-0.8 5.7-1.5 2.5-0.7 5.1-1.8 5.8-2.5 0.7-0.7 1.5-1.3 1.6-1.3zm7 16c0.5 0 1.7 0.9 2.5 2 0.9 1.2 1.4 2.1 1.1 2.1-0.3 0-1.4-1-2.5-2.1-1.1-1.1-1.6-2.1-1.1-2zm48.1 0.3c0 0.2-0.8 3.1-1.9 6.3-1.1 3.2-2.5 6.8-4.5 9.9l-0.7-2c-0.3-1.1-1-3-1.5-4.3-0.8-1.9-0.4-2.6 2.9-4.9 2-1.5 4.1-3.3 4.6-4.1 0.5-0.7 1-1.2 1.1-0.9zm-34.6 7.9l4.1 1.7c3.8 1.5 4.1 1.8 3.4 4.6-0.3 1.7-0.7 3.1-0.8 3.3 0 0.1-1.7 0-3.6-0.3-3.4-0.6-3.5-0.7-3.3-4.9zm-6.3 7.7c0.2 0 0.4 0.1 0.4 0.3 0 0.1-1 1.1-4.5 4.2l1.9-2.2c1-1.3 2-2.3 2.2-2.3zm3.1 3.1c0.4 0 1.7 0.4 2.8 0.9 1.7 0.8 1.7 0.9-0.8 0.9-1.5 0.1-2.7-0.3-2.7-0.9 0-0.5 0.3-0.9 0.7-0.9zm1.9 4.8l13.5 0.6 2 5.5c1 3 1.8 5.8 1.6 6.2-0.1 0.4-3.3-1.2-7.1-3.5-3.8-2.3-7.6-5.2-8.5-6.5zm-12.1 1.1c0.3 0 2.5 1.1 5 2.5 2.5 1.4 5.1 2.4 5.7 2.3 0.7-0.2 2.9 0.9 4.8 2.3 1.9 1.5 5.7 3.9 8.5 5.4 3.1 1.8 5.7 2.6 6.7 2.2 1.1-0.4 1.8-1.7 1.8-3.2 0-1.4-0.7-4.2-1.5-6.2-0.9-2.1-1.5-4.1-1.5-4.5 0-0.4 1-0.5 2.2-0.2 1.3 0.4 4 2.3 6.1 4.3 2.1 2 4.9 5.9 6.2 8.6 1.8 3.5 2.5 6.7 2.5 10.5 0 3-0.6 6.4-1.4 7.5-0.7 1.1-4.2 3.3-7.7 5-4.6 2.1-8.4 3-13.4 3.3-3.9 0.2-8.9-0.1-11.3-0.7-2.3-0.6-5.6-2.1-7.3-3.3-1.7-1.3-3.6-3.6-4.3-5.3-0.7-1.6-1.6-4.4-1.9-6.2-0.4-1.9-0.1-5.9 0.8-9.5 0.9-3.5 1.3-7 1-7.8q-0.6-1.5-1.5-0.5c-0.5 0.6-1.6 3.6-2.5 6.8-0.8 3.1-1.5 6.8-1.5 8.2 0 2.2-0.4 2.5-3.8 2.5-2 0-5.4-0.6-7.5-1.2-3.1-1.1-3.7-1.7-3.6-3.8 0-1.4 0.6-4.5 1.2-6.9 1.2-4.2 1.4-4.4 6.7-5.8 3-0.7 6.7-1.9 8.2-2.6 1.6-0.6 2.8-1.7 2.8-2.4 0-0.7 0.2-1.3 0.5-1.3zm-17.6 25.6c0.9 0.4 4.3 0.9 7.6 1.2 3.3 0.3 6.3 1 6.7 1.6 0.4 0.6 0.8 1.7 0.8 2.4 0 0.9-2.2 1.2-8.4 1-4.7-0.2-8.7-0.5-9-0.8-0.4-0.3-0.3-1.7 0.1-3.3 0.5-2 1.1-2.6 2.2-2.1z"/>
		<path id="Path 3" class="s1" d="m99 72.2c0.9 0.2 1.5 1.4 1.5 3.3 0 2.5-0.4 3-2.4 3-1.3 0-2.9-0.8-3.5-1.8-0.9-1.5-0.7-2.1 0.9-3.3 1.1-0.8 2.6-1.3 3.5-1.2zm11.6 1.3c0.8 1.1 1.4 2.8 1.4 3.7 0 1 1.5 3.4 6.5 9l-2.7 2.4c-1.6 1.3-3.5 2.4-4.3 2.4-0.8 0-1.5-0.5-1.5-1 0-0.6 0.8-1.6 1.9-2.3 1.8-1.2 1.8-1.2-0.1-3.2-1-1.1-2.3-3.8-2.9-6-0.6-2.2-0.7-4.7-0.4-5.5 0.5-1.2 0.9-1.2 2.1 0.5zm9.3-1.5c0.3-0.1 1.5 0.8 2.6 1.9 1.8 1.8 1.8 2.2 0.5 3.6-0.8 0.9-2.3 1.6-3.3 1.5-0.9 0-1.9-1-2.1-2.3-0.3-1.2 0-2.8 0.6-3.5 0.5-0.6 1.3-1.2 1.7-1.2zm-19.1 23.2c0.8 0.7 3.6 1.2 6.1 1.2 2.5-0.1 5.5-0.3 6.5-0.5 1-0.2 2 0.2 2.2 0.8 0.2 0.7-0.8 1.8-2.3 2.4-1.6 0.6-5 0.8-7.8 0.5-2.7-0.3-5.6-1.2-6.4-1.9-0.7-0.6-1-1.8-0.6-2.5 0.7-1.1 1.1-1.1 2.3 0z"/>
	</g>
</svg>