<svg version="1.2" xmlns="http://www.w3.org/2000/svg" viewBox="0 0 400 400" width="400" height="400">
	<title>1</title>
	<style>
		.s0 { fill: #ffffff } 
		.s1 { fill: #000000 } 
	</style>
	<g id="Background">
		<path id="Path 0" class="s0" d="m194.9 330.1l6.3 3.2c3.5 1.8 10.2 4.6 15 6.2 4.8 1.7 8.3 3.2 7.7 3.5-0.5 0.3 0.2 1.2 1.6 2 2.4 1.5 2.5 1.9 3 26.5l-10.5 10.7c-9.7 9.9-10.7 10.7-13.5 10.1-1.7-0.3-4.7 0.1-6.8 0.8-3 1.1-3.9 1.2-5 0.1-0.6-0.7-2-1.2-3-1.2-1 0-1.7-0.7-1.7-1.8 0-0.9-1.5-3.2-3.3-5-3-3-3.1-3.4-1.8-5.5 0.8-1.2 3.9-6.6 6.8-12 3.9-7.2 5.5-11.3 6-15.7 0.5-3.3 1.2-6 1.8-6 0.6 0 0.2-0.7-0.7-1.7-1.3-1.3-1.8-3.6-1.8-8zm8.5 65c1.6-0.1 1.6 0.2-2.9 4.9l38 0.5-0.2 8c-0.2 6-0.6 8.2-1.8 8.8-0.9 0.4-1.3 1.5-1 2.7 0.5 2 0.5 2-6.3 0-3.7-1.1-9.9-3.2-13.7-4.7-3.9-1.5-9.5-4.6-12.5-6.9-3-2.2-6.4-5.1-9.5-8.5l3 0.1c2.6 0.1 2.8-0.1 1.7-1.4-1-1.3-0.8-1.7 1-2.5 1.3-0.5 3.1-1 4.2-1zm-69.4 4.9h54.5l7 6.1c3.8 3.4 9 7.3 11.5 8.8 2.5 1.4 9 4 14.5 5.9 5.5 1.8 12 3.6 14.5 3.9 4.4 0.5 4.5 0.4 4.6-2.3 0.1-1.6 0.5-7.3 1.9-22.4h5.7c5.7 0 5.9 0.1 10 4.9 2.4 2.8 5.8 8 7.7 11.8 1.9 3.7 3.8 7.6 4.3 8.6 0.4 0.9 0.8 3.5 0.8 5.7 0 2.2-0.6 5.2-1.3 6.6-0.6 1.4-3.2 3.9-5.7 5.4-2.5 1.6-7.2 4.1-10.5 5.5-3.4 1.5-10.4 3.3-16 4.2-6.6 1-14.4 1.3-23 1.1-10.4-0.4-14.4-1-20-2.9-7-2.4-7-2.4-13.5-15.4v-15.7c0-11.6-0.3-16-1.3-16.4-0.6-0.3-1.7-0.1-2.2 0.6-0.6 0.6-1.1 5.6-1.3 11.1-0.1 6.2-0.6 9.7-1.2 9.4-0.6-0.3-3.7 3-7 7.3-5.1 6.5-6 8.3-6 11.7 0 3.3-0.4 4.2-2.5 5.3-1.4 0.6-3.3 1.2-4.3 1.2-0.9 0-4.9-0.9-8.7-2.2-3.9-1.2-7.6-2.1-8.3-2-0.6 0.1-1.4-0.5-1.7-1.3-0.3-0.8-1-1.3-1.5-1-0.6 0.3-3.6-0.6-6.8-2-3.1-1.4-6.5-2.5-7.5-2.5-0.9 0-1.7-0.3-1.7-0.7 0-0.5 0.9-3.5 2.1-6.8 1.2-3.3 2-6.8 1.9-7.9-0.1-1 0.8-4.3 2-7.5 1.3-3.1 3.8-8 5.6-10.8zm123.8 0l18.8-0.1-0.7 5.3c-0.4 2.9-1.5 7.3-4.5 14.3l-2.8-5c-1.5-2.8-4.6-7.2-6.8-9.8zm17.6 18.5l0.9 2.5c0.5 1.4 1.5 8.1 2.3 15 0.8 6.9 2.4 16.1 3.6 20.5 1.1 4.4 2.6 11.8 3.3 16.5 0.7 4.7 1.6 11.1 2.5 20h-14c-12.3 0-14-0.2-14.7-1.7-0.4-1-0.7-8.5-0.6-16.8 0.1-10.9 0.6-16.5 1.8-20.5 1.4-4.6 2.4-6 6.2-8.5 2.6-1.6 5.3-4.3 6.1-6 1.1-2.2 1.3-4.6 0.9-8.7-0.4-3.5-0.2-7.1 0.5-9zm-99.9 9.2l1.3 4.4c0.7 2.4 1 4.9 0.8 5.6-0.3 0.7 0.1 1.8 0.8 2.5 0.7 0.7 2.2 3 3.2 5.2 1.1 2.2 3.3 4.8 5 5.7 1.6 1 6.6 2.7 11 3.8 6 1.6 11.1 2.1 20.5 2.1 6.9 0 16.8-0.7 22-1.5 5.2-0.8 11.2-2.1 13.2-3 2.1-0.8 4-1.5 4.3-1.5 0.3 0 0 1.6-0.7 3.7-0.6 2.2-1.2 11.1-1.3 38.3h-83.5l0.7-16.3c0.6-16.2 0.6-16.3-2-21.7-1.5-3.1-2.7-6.9-2.7-8.5 0.1-2.7-0.1-2.9-1.5-1.5-1.5 1.3-1.6 1.2-1.6-1.3 0.1-1.5 1.3-4.2 2.9-6 1.5-1.8 3.9-4.8 5.2-6.6zm-55.1 15.8c1.2 0.4 4.2 1.6 6.7 2.7 2.4 1 5.7 2.6 7.2 3.3 1.5 0.8 4.2 1.4 6 1.2 1.8-0.1 4.7 0.1 6.5 0.5 2.4 0.6 3.3 1.3 3.3 2.8 0 1.6 0.5 1.9 2.5 1.5q2.5-0.5 4.5 1.5 2 2 2 6c0 2.8-0.5 4-1.5 4-0.9 0-2.1 1.2-2.9 2.7-0.7 1.5-3.1 7.4-9.1 23.3h-32.5l1-2.5c0.5-1.4 1-6.9 1-12.3 0-5.4 0.4-11.3 0.9-13.2 0.5-2 1.2-7.4 1.5-12 0.3-4.7 0.6-8.9 0.6-9.4 0.1-0.4 1.1-0.5 2.3-0.1z"/>
		<path id="Path 1" fill-rule="evenodd" class="s1" d="m228 178.7c1.4 0.2 5.2 0.8 8.5 1.2 3.3 0.4 7.8 1.4 10 2.1 2.2 0.7 5.1 2.1 6.5 3 1.4 1 3.9 2.6 5.6 3.6 1.8 1.1 5.1 4.4 7.5 7.4 2.4 3 5.7 7.8 7.4 10.7 1.6 2.8 4.2 7.1 5.7 9.5 1.5 2.3 4.1 8.4 5.9 13.3 2.8 8.1 3.2 10.2 3.3 21.1 0.1 9.2 0.4 12.1 1.3 11.8 0.7-0.2 1.6 0.4 2 1.4 0.3 0.9-0.1 2.8-0.9 4.2-1.3 2.1-1.5 5.4-1.1 20 0.3 11.1 0.1 18.2-0.5 19.5-0.6 1.1-1.6 3.8-2.3 6-0.6 2.2-2.3 6.3-3.6 9-1.4 2.8-3.6 6.5-4.9 8.3-1.4 1.8-2 3.4-1.4 3.7 0.6 0.3 0.7 1.9 0.4 3.8-0.6 2.8-0.1 3.8 3.4 7.7 2.2 2.5 5.8 5.4 7.9 6.5 2.1 1.1 4.1 2.4 4.5 3 0.4 0.5 0.8 1.2 0.8 1.5 0 0.3-4.4 0.4-9.8 0.2-5.3-0.1-11.7-0.8-14.2-1.4-2.5-0.6-5.1-1.6-5.8-2.2-0.7-0.6-1.5-0.8-1.7-0.3-0.3 0.4-1.4-0.1-2.4-1-1.1-1-3.5-3.2-5.4-4.8-1.9-1.6-3.6-3.6-3.8-4.3-0.3-1-1.5-0.8-5.4 0.9-3.1 1.3-6.8 2.1-14.5 1.9v11.5c0 6.3-0.2 11.9-0.5 12.5-0.3 0.6-0.9 0.8-1.5 0.5-0.6-0.3-1-5.4-1-12.2 0.1-11.6 0-11.8-2.5-13.3-1.4-0.8-2.1-1.7-1.6-2 0.6-0.3-2.9-1.8-7.7-3.5-4.8-1.6-11.5-4.4-21.2-9.5v6.3c0 4.5 0.5 6.7 1.8 8 0.9 1 1.3 1.7 0.7 1.7-0.6 0-1.3 2.7-1.8 6-0.5 4.3-2.1 8.5-5.4 14.8-2.6 4.8-5.6 10.2-8.8 15.2l-2-2.3c-1.1-1.3-2.7-2.6-3.5-2.9-1.3-0.6-1.3-0.8 0-1.8 0.8-0.6 2.8-1.4 4.3-1.8 2.2-0.5 3.7-2.3 6.6-7.7 2.9-5.3 4-8.6 4.5-13.7 0.6-6.3 0.5-6.8-1.4-6.8-1.4 0-2.2 0.9-2.6 2.8-0.3 1.5-1.9 4.5-3.4 6.7-1.5 2.2-4.6 5.9-6.9 8.3-2.3 2.3-4.7 4.2-5.3 4.2-0.7 0-1.5-0.2-1.8-0.4-0.3-0.3 0.5-3.6 1.7-7.3 1.2-3.7 2.3-8.4 2.3-10.3 0-1.9-0.6-5.1-1.4-7-0.8-1.9-2.9-4.9-4.7-6.5-1.8-1.6-2.9-2.4-2.6-1.7 0.5 0.8-0.1 0.7-1.8-0.3-1.4-0.8-2.5-1.9-2.5-2.5 0-0.6-0.4-0.8-1-0.5-0.6 0.3-1.4 2.6-2 5.3-0.5 2.6-2.3 9.2-3.9 14.7-1.7 5.5-3.7 10.7-4.6 11.5q-1.5 1.5-2.5 0.5c-0.7-0.7-0.5-3.4 0.5-8.5 1-4.8 1.4-9.7 1-13.5-0.3-3.3-1.1-8.9-1.7-12.5-0.6-3.6-1.6-7.1-2.2-7.9-0.6-0.8-1.3-3-1.6-4.9-0.3-2-1.3-3.9-2.5-4.6-1-0.6-4.2-2.7-7-4.7-3-2.1-5.6-4.9-6.4-7-0.8-1.9-2-3.7-2.5-4-0.6-0.4-1.5-3.3-1.9-6.5-0.5-3.3-0.6-8-0.3-10.6 0.3-2.7 0.9-4.6 1.4-4.3 0.4 0.2 2-0.9 3.7-2.5 1.7-1.6 3.8-3 4.8-3 1 0 1.4-0.5 1-1.2-0.3-0.7-0.5-6.7-0.2-25.3l4.9-10c2.7-5.5 6.6-12.9 8.6-16.5 2-3.6 4.2-7.4 5-8.5 0.8-1.1 4-4.1 7.2-6.8 3.1-2.6 11.1-7.4 17.7-10.6 8.1-4 14.6-6.4 20-7.5 4.4-0.9 12.7-2 18.5-2.5 5.8-0.5 11.6-0.7 13-0.4zm-37 164.8c0.6 0.3 1-1.7 1-5.3 0-3.1-0.5-6.4-1-7.2-0.7-1.1-1 0.5-1 5.2 0 3.8 0.4 7 1 7.3zm12 48.8c1.9 0.1 3.4 0.6 3.3 1.2-0.1 0.6-2.4 1.5-5 2.2-3.6 0.8-5.1 0.8-6.1 0-1.1-1-0.8-1.4 1.5-2.4 1.5-0.6 4.4-1.1 6.3-1zm-69 7.7l-3.4 5.2c-1.8 2.9-4.2 7.8-5.4 10.8-1.1 3-2 6.4-2 7.5 0 1.1-0.9 4.7-2.1 8-1.2 3.3-2.1 6.3-2.1 6.7 0 0.5 0.8 0.8 1.8 0.8 0.9 0 4.3 1.1 7.5 2.5 3.1 1.4 6.1 2.3 6.7 2 0.6-0.3 1.2 0.2 1.5 1 0.3 0.8 1.1 1.4 1.8 1.3 0.6-0.1 4.4 0.8 8.2 2 3.8 1.3 7.8 2.2 8.8 2.2 0.9 0 2.8-0.6 4.2-1.3 2.1-1 2.5-1.9 2.5-5.2 0-3.4 0.9-5.2 6-11.8 3.3-4.2 6.4-7.5 7-7.2 0.6 0.3 1.1-3.2 1.3-9.4 0.1-5.5 0.6-10.5 1.2-11.2 0.6-0.6 1.6-0.8 2.3-0.5 0.9 0.4 1.2 4.7 1.2 32.1l3.3 6.5c3.2 6.5 3.2 6.5 10.2 8.9 5.6 1.9 9.6 2.5 20 2.8 8.6 0.3 16.4 0 23-1 5.6-0.9 12.6-2.7 16-4.2 3.3-1.4 8-3.9 10.5-5.5 2.5-1.5 5.1-4 5.8-5.4 0.6-1.4 1.2-4.4 1.2-6.6 0-2.2-0.4-4.8-0.8-5.8-0.5-0.9-2.4-4.8-4.3-8.5-1.9-3.8-5.3-9.1-7.6-11.8-3.7-4.2-4-4.9-2.3-4.9 1.1 0 3.6 1.9 5.6 4.2 1.9 2.4 4.9 6.8 9.8 15.3l1.9-4.5c1-2.5 2.2-6.9 2.5-9.8 0.4-3.2 1.2-5.2 2-5.2 0.9 0 1.3 3.7 1.7 13.7 0.3 7.6 1 15.6 1.6 17.8 0.6 2.2 1 5.1 1 6.5-0.1 1.4 1.2 8.1 2.8 15 1.7 6.9 3.7 17.7 4.6 24 0.9 6.3 1.8 12.5 2.1 13.7 0.3 1.8-0.1 2.3-1.6 2.3-1.7 0-2.1-0.9-2.6-5.8-0.3-3.1-1.2-9.5-1.9-14.2-0.7-4.7-2.2-12.1-3.4-16.5-1.1-4.4-2.7-13.6-3.5-20.5-0.8-6.9-1.9-13.6-3.3-17.5l-1.1 3.2c-0.7 2-1 5.6-0.6 9 0.5 4.2 0.3 6.6-0.8 8.8-0.8 1.6-3.6 4.4-6.1 6-3.7 2.4-4.8 3.9-6.1 8-0.9 2.8-1.9 10.9-2.2 18.5-0.4 9-0.3 14.8 0.5 17.2 1 3.5 0.9 3.8-0.9 3.8-1.6 0-2.1-0.9-2.6-4.8-0.4-2.6-0.4-10.6 0-17.7 0.3-7.1 1.1-14.5 1.6-16.3 0.6-1.7 0.8-3.2 0.5-3.2-0.3 0-2.2 0.7-4.2 1.6-2.1 0.8-8.1 2.2-13.3 3-5.2 0.7-15.1 1.4-22 1.4-9.4 0-14.5-0.5-20.5-2-4.4-1.2-9.3-2.9-11-3.8-1.7-1-3.9-3.5-4.9-5.7-1.1-2.2-2.6-4.6-3.3-5.3-0.7-0.6-1.1-1.8-0.8-2.5 0.3-0.6-0.1-3.2-2.1-10.2l-2.4 3.5c-1.3 1.9-3.6 5-5.2 6.7-1.5 1.9-2.8 4.5-2.8 6-0.1 2.5 0.1 2.7 1.5 1.3 1.4-1.4 1.6-1.2 1.5 1.5 0 1.6 1.1 5.2 2.5 8 2.2 4.4 2.5 6.3 2.5 15.5 0 5.8-0.3 13.3-0.7 16.8-0.5 3.9-1.3 6.2-2 6.2-1 0-1.2-3.5-0.6-15.8 0.6-14.7 0.5-16-1.5-20.5-1.2-2.6-2.6-4.5-3.2-4.2-0.6 0.3-1.3 3-1.7 6.1-0.5 3.1-1.3 5.9-2 6.3-0.6 0.3-3.6 6.7-6.5 14.1-3.7 9.3-5.9 13.6-7.1 13.7-1.3 0.2-1.6-0.2-1.1-2 0.4-1.2 2.5-6.9 4.8-12.6 2.8-7.1 4.7-10.6 5.9-10.8 1.3-0.2 1.7-1.3 1.7-4.3q0-4-2-6-2-2-4.5-1.5c-2 0.4-2.5 0.1-2.5-1.5 0-1.4-0.9-2.2-3.2-2.7-1.8-0.4-4.8-0.6-6.5-0.5-1.8 0.1-4.5-0.4-6-1.2-1.6-0.8-4.8-2.3-7.3-3.4-2.5-1.1-5.5-2.2-6.7-2.6-1.3-0.3-2.3-0.3-2.3 0.1 0 0.5-0.3 4.6-0.6 9.3-0.3 4.7-1 10.1-1.5 12-0.5 1.9-0.9 7.9-0.9 13.2 0 5.4-0.4 10.9-1 12.3-0.5 1.4-1.7 2.5-2.5 2.5-1.1 0-1.3-0.6-0.8-2.3 0.4-1.2 0.8-9.5 1-18.5 0.2-8.9 0-16.2-0.4-16.2-0.5 0-0.8-3-0.8-6.6 0-4.7 0.4-7 1.5-7.8 0.8-0.6 2.7-4.9 4.2-9.6 1.5-4.7 2.8-9.2 2.8-10 0-0.8 1.2-3.9 2.5-6.8 1.4-2.8 2.3-5.5 2-6-0.3-0.4 0.9-2.6 2.5-5 2.2-3 3.7-4.2 8-4.2zm57-0.1c1.4 0 3.4 1 4.5 2.2 1.1 1.2 4.5 4.1 7.5 6.3 3 2.3 8.7 5.4 12.5 6.9 3.8 1.5 10 3.6 13.8 4.7 6.7 2 6.7 2 6.2 0-0.3-1.2 0.1-2.3 1.1-2.8 1.2-0.5 1.6-2.6 1.7-8.9 0.2-7.6 0.4-8.3 2.2-8.3 1.9 0 2 0.4 1.1 9.7-0.5 5.4-0.9 11.1-1 12.7-0.1 2.7-0.2 2.8-4.6 2.3-2.5-0.3-9.2-2.2-15-4.1-5.8-2-12.7-5-15.5-6.7-2.7-1.7-7.7-5.5-11-8.5-5.4-4.9-5.7-5.5-3.5-5.5z"/>
		<path id="Path 2" fill-rule="evenodd" class="s0" d="m225 182.7c6.4 0.3 13.5 1.2 16 2 2.5 0.9 7.7 3 11.5 4.9 5.3 2.5 7.7 4.3 10 7.6 1.6 2.4 3 4.6 3 5 0 0.3 0.3 1 0.8 1.5 0.4 0.4 0.8 1.7 0.8 2.8 0 1.1 2.2 4.4 4.9 7.3 2.8 2.8 5.2 6.4 5.5 8 0.3 1.5 1.7 5 3.1 7.7 1.8 3.7 2.4 6.4 2.3 10.5-0.1 3 0.2 7.1 1.4 12.5l-5.4-3.1c-3-1.7-7.2-3.7-9.4-4.4-2.2-0.7-4.4-1.6-5-2.1-0.6-0.4-3.5-1.3-6.5-1.9-3-0.6-6.1-1.6-6.8-2.3-0.7-0.7-1.3-2.2-1.2-3.4 0-1.3-0.4-2.1-1-1.8-0.6 0.3-0.8-0.2-0.5-1 0.3-0.8 0.1-1.7-0.5-2-0.6-0.3-1-2-1-3.7 0-2.1-1.5-5.5-4-9.3-2.1-3.3-4.8-6.8-5.9-7.7-1.2-1-2.5-1.6-3.1-1.3-0.6 0.3 0.6 2.6 2.6 5.3 2 2.6 4.8 6.7 6.2 9.2 2.1 3.6 2.6 5.6 2.4 10-0.1 3-0.4 7.2-0.7 9.3-0.3 2-0.9 3.5-1.5 3.2-0.6-0.3-1.2 0.9-1.5 2.5-0.3 1.7-1 2.9-1.7 2.7-0.7-0.2-1.6-2.8-2-5.8-0.4-3-1-5.6-1.3-5.9-0.3-0.3-0.6 0.9-0.6 5.5l-2.5-3c-1.4-1.6-4.4-5.7-6.7-9-2.3-3.3-5.9-8-8.2-10.4-2.3-2.5-6.3-5.3-9.5-6.7-3-1.3-5.6-2.3-5.7-2.2-0.1 0.2 2.8 2.6 6.5 5.3 3.7 2.8 7.1 6 7.7 7.3 0.6 1.2 1.3 2.2 1.8 2.2 0.4 0 2.3 2.4 7.7 10.5l-4.7 1.2c-2.7 0.7-5.2 1.1-5.8 0.9-0.6-0.2-1.9 0.9-3 2.5-1.2 1.7-2.6 2.7-3.5 2.4-0.8-0.2-3.3 0.6-5.5 2-2.2 1.3-5.8 3.4-8 4.6-2.2 1.1-5.5 3.5-7.3 5.3-1.8 1.7-4.1 5.5-5.2 8.4-1.1 2.8-2.2 5.2-2.5 5.2-0.3 0-1.6-0.7-3-1.5-2.3-1.4-2.6-1.3-3.1 0.3-0.3 0.9 0.2 3.3 1.1 5.2 1.3 2.6 1.8 6.5 1.9 15 0.2 9.6 0.8 13 3.3 21 1.7 5.2 3.5 10.5 4.2 11.8 0.6 1.2 1.1 4.7 1.1 7.7 0 3-0.5 6.5-1.2 7.8-0.6 1.2-1.2 3.8-1.3 5.7-0.1 2.1-1.5 5.5-3.3 8.3-1.8 2.6-3.5 4.9-4 5.1-0.4 0.2-0.5-2.6-0.3-6.3 0.3-5.6 0-7.4-2.1-11.6-1.4-2.7-3.1-6.1-3.7-7.5-0.6-1.4-2.7-3.5-4.6-4.7-2.5-1.6-4.7-4.6-7.4-10-2.1-4.5-4.6-11.5-5.6-16.3-1.1-5.5-1.5-10.6-1.2-14.5 0.3-3.3 0.9-6.9 1.3-8 0.6-1.8 0.7-1.9 1.5-0.2 0.5 0.9 1.3 1.7 1.9 1.7 0.6 0 1-1 1-2.2 0.1-1.3-0.6-2.9-1.5-3.5-1.3-1.2-1.3-1.8 0.4-6.5 1-2.9 2.9-7.3 4.1-9.8 1.3-2.5 4.4-6.7 6.9-9.3 3.7-3.8 4.3-5 3.3-6-0.9-0.9-2.1-0.3-5.7 3.3-2.5 2.5-5.8 7-7.4 10-1.6 3-3.4 7.3-4.1 9.5-0.7 2.2-1.6 4.5-2 5-0.6 0.6-1.7 0.4-3.2-0.8-1.9-1.4-2-1.7-0.6-1.7 1 0 1.7-0.6 1.5-1.2-0.2-0.8-2.4-1.4-5.3-1.6-4-0.3-5.3-0.8-6.8-3-1.8-2.6-1.8-3.1-0.3-12.7 0.9-5.5 2.5-12.5 3.5-15.5 1.1-3 3.1-7.3 4.6-9.5 1.5-2.2 3.8-6.4 5.2-9.2 1.3-2.9 4.3-7.2 6.6-9.4 2.4-2.3 6.3-5.5 8.8-7.2 2.5-1.7 9-5.2 14.5-7.8 6.1-2.9 13.1-5.3 18-6.3 4.4-0.8 9.6-1.7 11.5-2 1.9-0.2 8.7-0.2 15 0.1zm4.2 58.7l3.3 4.5c3 4.1 3.3 5.4 3.6 12.8 0.2 4.7 0.8 8.1 1.4 8 0.6-0.1 1 1.2 0.9 2.8-0.1 2.1 0.4 3 1.5 3 0.8 0 1.7 0.9 1.9 2 0.2 1.1 0.7 2.9 1.2 4 0.5 1.1 1.4 4 2 6.5 0.7 2.5 2.5 7 4.2 10 1.7 3 2.7 6.1 2.4 6.8-0.4 0.8-2.8 1.1-7.4 1-5.2-0.1-6.7 0.2-6.7 1.3 0 1.1 1.8 1.5 7.3 1.7 5.5 0.1 7.8-0.2 9.7-1.5 1.3-1 2.5-2.2 2.5-2.8 0.1-0.6-0.7-1.7-1.6-2.5-0.9-0.8-2.7-3.5-3.9-6-1.2-2.5-3.2-8-4.4-12.2-1.1-4.3-2.1-9.2-2.1-10.8 0-1.7 0.5-3 1.3-3.1 0.6 0 0.2-0.4-1-1-2-0.8-2.3-1.6-2.3-6.4q0-5.5 1.8-8.2c1-1.6 2.5-4.3 3.3-6.1 1.1-2.6 1.8-3.1 3.4-2.6 1.1 0.3 6.7 2.2 12.5 4.1 5.8 1.9 12.5 4.7 15 6.2 4.3 2.6 4.5 2.9 5 13.1h-4c-3.3 0-4.5-0.6-7.2-3.6-1.8-2-4.4-4.2-5.8-4.9-1.4-0.7-4.7-2.1-7.5-3-2.7-0.9-6.1-1.5-7.5-1.3-1.4 0.2-2.5 1-2.5 1.8 0 1 0.8 1.4 2.3 1.3 1.2-0.2 4.3 0.4 7 1.3 2.6 0.9 5.5 2 6.5 2.5 0.9 0.5 1.5 1.3 1.2 1.9-0.3 0.6 0.4 1 1.5 1q2 0 5 5c1.6 2.8 3 5.6 3 6.3-0.1 0.6 0.6 1.9 1.5 2.7q1.7 1.5 2.3 0.4c0.4-0.6 1.6-1.4 2.7-1.8 1.9-0.7 2-0.5 1.2 4.1-0.4 2.6-1.2 7.1-1.6 9.8-0.5 2.8-2.1 8.1-3.6 12-1.4 3.9-3.8 9.3-5.2 12-1.4 2.8-3.9 6.8-5.6 8.9-1.8 2.2-6.1 5.9-9.7 8.2-3.6 2.3-8.9 5.1-11.8 6.3-2.8 1.2-5.2 1.8-5.2 1.4 0-0.5-0.7 0.2-1.5 1.5-1.2 1.8-2.1 2.1-4.7 1.6-1.8-0.3-8-2.1-13.8-4.1-5.8-1.9-13.4-4.9-17-6.6-3.6-1.7-8.8-5.4-11.6-8.2-4.3-4.2-5.5-6.3-7.9-13.5-1.7-5.5-2.9-11.7-3.3-17.5-0.4-6.3-0.2-9.2 0.6-9.7 0.7-0.5 2.3-0.1 3.7 0.7 1.4 0.8 2.6 1.5 2.8 1.5 0.1 0.1 1.5-1.8 3.1-4.2 1.5-2.4 5.1-6.5 8-9.3 2.9-2.7 7.9-6.3 11.1-7.9 4.7-2.2 6.8-2.7 9.8-2.2 2 0.3 3.7 0.3 3.7-0.1 0-0.5-0.5-1.4-1.2-2.1-0.7-0.7-3-1.2-5-1.2-2.2 0-6.4 1.3-9.8 3-3.3 1.6-7.9 4.8-10.2 7-3.2 3-5.5 4.2-8.8 4.7-3.8 0.6-4.4 0.5-3.6-0.8 0.4-0.7 2.6-4.1 4.8-7.4 3.2-5 5-6.6 10.6-9.4 3.7-1.9 8-4.3 9.7-5.5 1.7-1.2 4.1-2.7 5.5-3.3 1.4-0.7 4.9-1.9 7.9-2.6zm51 27.6c2.1 0 3.7 0.5 3.7 1 0 0.6-0.9 1.5-2 2-1.1 0.6-2.1 0.9-2.2 0.8-0.2-0.1-1-1-1.8-2-1.3-1.6-1.1-1.8 2.3-1.8zm-140.2 1c1.1 0 4 1.1 6.5 2.3 3.8 1.8 4.5 2.6 4 4.2-0.3 1.1-0.9 4.9-1.3 8.4-0.5 4-1.4 6.9-2.5 8-1 0.9-1.8 2.7-1.8 3.9 0 1.2 0.5 3.4 1 4.7 0.6 1.4 2 2.9 3.1 3.3 1.2 0.4 2.4 2.2 3 4.2 0.5 2 0.7 3.7 0.4 3.8-0.2 0.1-3.5-1.3-7.2-3.2-3.7-1.9-7.8-4.4-9-5.5-1.2-1.1-2.7-2.1-3.3-2.1-0.5 0-2.3-2.9-4-6.5-1.6-3.5-3-7.4-3-8.5 0-1.1 0.6-3.1 1.3-4.4 0.7-1.4 1.6-2.3 2-2 0.4 0.2 0.2 2-0.5 4-1.1 3-1 3.9 0.6 6.7 1.1 1.8 3.3 4.7 5 6.5 1.7 1.8 3.9 3.3 4.9 3.3 1 0 1.7-0.5 1.7-1.1 0-0.5-1.1-1.6-2.5-2.5-1.3-0.8-3.6-3.4-7.7-10l1.9-3.3c1-1.9 3-4.1 4.3-5 1.6-1 4.1-1.3 6.8-1.1 3.4 0.4 4.2 0.1 4-1.1-0.2-1-1.8-1.5-5.8-1.7-3.6-0.2-6.2 0.2-7.7 1.2-1.9 1.3-2.3 1.3-2.3 0.1 0-0.7 1.3-2.5 3.1-4 1.7-1.4 4-2.6 5-2.6zm47 5c2.6 0 2.8 0.3 1.9 2-0.5 1.1-1.5 2-2.2 2-0.7 0-1.9-0.4-2.8-0.9-0.8-0.5-1.1-1.3-0.7-1.9 0.5-0.7 2.2-1.2 3.8-1.2zm98.9 15c0.4 0 0.5 3.1 0.3 6.8-0.2 3.7-0.7 7.4-1 8.2-0.2 0.9-0.6 2.7-0.7 4-0.1 1.4-1.9 6-3.9 10.3-2 4.3-4.5 8.5-5.6 9.5-1.4 1.2-1.7 2.1-1 3 0.6 0.8 0.6 2-0.1 3.2-0.6 1.4-0.6 3.6 0.1 6.8 0.6 2.6 2.4 6.4 4 8.5 1.7 2.1 2.4 3.8 1.7 3.8-0.7 0-3.7-1-6.8-2.2-3-1.2-6.4-3.1-7.5-4.3-1.1-1.2-2.9-2.5-4-3-1.1-0.5-2.2-0.9-2.5-1-0.2-0.1-1.6-0.7-3-1.5-1.4-0.8-1.9-1.5-1.2-1.7 0.7-0.2 1-0.8 0.7-1.4-0.2-0.5 0.3-1.3 1.3-1.7 1-0.4 5.4-4.3 9.8-8.7 4.5-4.4 8.9-9.6 9.9-11.6 1-1.9 2.7-5.9 3.7-9 1.1-3 2.4-6 2.9-6.7 0.5-0.7 0.9-1.6 0.8-2-0.1-0.4 0.2-2.7 0.6-5 0.4-2.3 1.1-4.3 1.5-4.3zm-136.7 6.5c0.5 0.4 0.9 1.7 0.8 2.9-0.1 1.7-0.3 1.9-1.1 0.6-0.5-0.8-0.9-2-0.8-2.8 0-0.7 0.5-1 1.1-0.7zm-2.5 17.4l3.8 1.9c2.2 1.1 4.6 3.1 5.3 4.4 0.9 1.5 1.2 3.9 0.8 6.8-0.3 2.5-1.3 7-2.2 10-1.2 4.2-1.8 5.2-2.5 4-0.5-0.8-0.9-3-0.9-5 0-1.9-0.8-6.6-1.6-10.5-0.9-3.8-1.9-8-2.2-9.3z"/>
		<path id="Path 3" class="s1" d="m283.4 439c0.3 0.3 1.2 2.2 2 4.3 0.9 2 1.4 3.7 1.1 3.7-0.3 0-1.2-1.6-2-3.5-0.8-1.9-1.5-3.8-1.5-4.3 0-0.4 0.2-0.5 0.4-0.2zm-20.3-174c1 0 3.5 1.2 5.4 2.8 1.9 1.5 3.5 3.5 3.5 4.5 0 0.9-1 4-4.5 11.8l-4.7-0.1c-3.4 0-5-0.5-5.3-1.5-0.3-0.8-0.5-3.9-0.6-6.9-0.1-4.1 0.4-5.9 2.1-8 1.2-1.4 3-2.6 4.1-2.6zm-44.7 1c1.1-0.1 2.9 0.7 3.9 1.7 1.4 1.4 1.8 3 1.5 7.4-0.2 3.1-1 6.3-1.8 7.3-0.8 0.9-2.7 1.7-4.2 1.6-1.9 0-3.4-0.9-4.5-2.7-1-1.5-1.8-4.6-1.8-7.1 0-3.4 0.5-4.8 2.4-6.3 1.3-1 3.3-1.9 4.5-1.9zm24.7 21c0.5 0 0.9 1.7 0.9 3.7 0 3.7 0 3.8-1.5 1.5-0.8-1.2-1.2-2.9-0.9-3.7 0.3-0.8 1-1.5 1.5-1.5zm-4.1 30c1.9 0 4.2 1 6 2.7 1.9 1.7 3.4 4.3 4.5 10.2l-4-0.3c-2.2-0.1-4.6-0.6-5.2-0.9-0.7-0.4-3-0.4-5-0.1-2.1 0.4-4.4 1.1-5 1.5-0.7 0.5-1.7 0.7-2.3 0.4-0.5-0.3-1-1.5-1-2.8 0-1.5 1.6-3.8 4.5-6.5 3.2-3 5.4-4.2 7.5-4.2z"/>
		<path id="Path 4" class="s0" d="m262.8 268c0.4 0 1.3 0.5 2 1.2 0.7 0.7 1.2 2.5 1.2 4 0 1.6 0.4 2.8 1 2.8 0.6 0 0.5 1-0.3 2.6-0.9 1.9-1.8 2.5-3.7 2.2-2.2-0.3-2.5-0.8-2.8-4.5-0.1-2.4 0.3-5.2 0.8-6.3 0.6-1.1 1.4-2 1.8-2zm-43.9 1.2c1 0.2 1.7 1.5 1.9 3.3 0.2 1.7-0.2 4.2-0.7 5.8-0.6 1.5-1.8 2.7-2.6 2.7-0.8 0-1.5-0.3-1.6-0.8-0.1-0.4-0.2-2.5-0.4-4.7-0.1-2.2 0.2-4.6 0.8-5.3 0.6-0.7 1.7-1.2 2.6-1zm20.4 50.8c0.7 0 2.2 0.7 3.4 1.5 1.3 0.8 2.3 2.1 2.3 2.8 0 0.8-1.9 1.2-12.5 1.2l2.8-2.7c1.5-1.6 3.3-2.8 4-2.8z"/>
	</g>
</svg>