<svg version="1.2" baseProfile="tiny-ps" xmlns="http://www.w3.org/2000/svg" viewBox="0 0 1920 1080" width="1920" height="1080"><title>house</title><style>tspan { white-space:pre }.shp0 { fill: #ffffff } .shp1 { fill: #000000 } </style><g ><path class="shp0" d="M0 342C0 530.1 0.11 684.01 0.25 684.03C0.39 684.05 1.85 683.38 3.5 682.54C5.15 681.7 7.4 681.03 8.5 681.05C9.6 681.07 11.18 680.38 12 679.52C12.82 678.65 14.74 677.73 16.25 677.47C17.76 677.21 19.23 676.55 19.5 676C19.77 675.45 22.02 674.1 24.5 673C26.98 671.9 29.23 671 29.5 671C29.77 671 34.61 668.8 40.25 666.11C45.89 663.42 51.63 660.89 53 660.49C54.38 660.1 56.4 658.96 57.5 657.96C58.6 656.96 60.8 655.78 62.38 655.32C63.97 654.87 65.43 654.16 65.63 653.75C65.83 653.34 68.03 652.1 70.5 651C72.97 649.9 75.34 649 75.75 649.01C76.16 649.01 78.53 647.06 81 644.67C83.47 642.29 86.63 639.98 88 639.55C89.38 639.12 91.17 638.18 92 637.46C92.83 636.74 94.63 635.89 96 635.57C97.38 635.25 99.63 633.86 101 632.47C102.38 631.08 103.95 629.97 104.5 630C105.05 630.02 106.85 628.67 108.5 627C110.15 625.33 111.95 623.99 112.5 624.02C113.05 624.06 114.17 623.32 115 622.38C115.83 621.44 118.3 619.88 120.5 618.92C122.7 617.95 125.4 616.17 126.5 614.97C127.6 613.77 130.53 611.75 133 610.49C135.47 609.23 138.63 606.98 140 605.5C141.38 604.02 144.53 601.77 147 600.51C149.47 599.25 152.4 597.25 153.5 596.08C154.6 594.9 155.95 593.95 156.5 593.96C157.05 593.97 160.31 591.29 163.75 587.99C167.19 584.7 170.34 582.01 170.75 582.03C171.16 582.05 172.4 581.14 173.5 580C174.6 578.86 175.95 577.96 176.5 577.99C177.05 578.02 178.85 576.67 180.5 575C182.15 573.33 183.95 571.98 184.5 572C185.05 572.02 186.85 570.67 188.5 569C190.15 567.33 191.95 565.98 192.5 566.01C193.05 566.04 194.4 565.14 195.5 564C196.6 562.86 197.95 561.96 198.5 561.99C199.05 562.02 200.85 560.67 202.5 559C204.15 557.33 206.03 555.97 206.67 555.98C207.32 555.99 209.12 554.72 210.67 553.16C212.23 551.59 214.63 549.96 216 549.53C217.38 549.11 219.06 548.36 219.75 547.88C220.66 547.24 220.73 546.32 220 544.5C219.45 543.13 219 539.75 219 537C219 534.25 219.73 529.41 220.63 526.25C221.52 523.09 222.7 516 223.24 510.5C223.8 504.73 224.49 429.84 224.86 333.5C225.38 197.41 225.75 165.94 226.84 163.5C227.57 161.85 228.64 158.25 229.21 155.5C229.78 152.75 230.67 139.47 231.19 126C231.7 112.53 232.19 88 232.27 71.5C232.35 53.3 231.97 38.94 231.29 35C230.68 31.42 229.45 26.48 228.57 24C227.57 21.22 226.97 16.35 226.98 11.25C226.99 6.71 226.78 2.33 226.5 1.5C226.06 0.18 212.56 0 113 0L0 0L0 342Z" /><path class="shp1" d="M226.8 9.75C226.97 15.11 227.79 21.52 228.63 24C229.47 26.48 230.66 31.42 231.28 35C231.97 38.98 232.35 53.13 232.27 71.5C232.19 88 231.7 112.53 231.19 126C230.67 139.47 229.78 152.75 229.21 155.5C228.64 158.25 227.57 161.85 226.84 163.5C225.75 165.94 225.38 197.41 224.86 333.5C224.49 429.84 223.8 504.73 223.24 510.5C222.7 516 221.52 523.09 220.63 526.25C219.73 529.41 219 534.25 219 537C219 539.75 219.45 543.13 220 544.5C220.73 546.32 220.66 547.24 219.75 547.88C219.06 548.36 217.38 549.11 216 549.53C214.63 549.96 212.23 551.59 210.67 553.16C209.12 554.72 207.32 555.99 206.67 555.98C206.03 555.97 204.15 557.33 202.5 559C200.85 560.67 199.05 562.02 198.5 561.99C197.95 561.96 196.6 562.86 195.5 564C194.4 565.14 193.05 566.04 192.5 566.01C191.95 565.98 190.15 567.33 188.5 569C186.85 570.67 185.05 572.02 184.5 572C183.95 571.98 182.15 573.33 180.5 575C178.85 576.67 177.05 578.02 176.5 577.99C175.95 577.96 174.6 578.86 173.5 580C172.4 581.14 171.16 582.05 170.75 582.03C170.34 582.01 167.19 584.7 163.75 587.99C160.31 591.29 157.05 593.97 156.5 593.96C155.95 593.95 154.6 594.9 153.5 596.08C152.4 597.25 149.47 599.25 147 600.51C144.53 601.77 141.38 604.02 140 605.5C138.63 606.98 135.47 609.23 133 610.49C130.53 611.75 127.6 613.77 126.5 614.97C125.4 616.17 122.7 617.95 120.5 618.92C118.3 619.88 115.83 621.44 115 622.38C114.17 623.32 113.05 624.06 112.5 624.02C111.95 623.99 110.15 625.33 108.5 627C106.85 628.67 105.05 630.02 104.5 630C103.95 629.97 102.38 631.08 101 632.47C99.63 633.86 97.38 635.25 96 635.57C94.63 635.89 92.83 636.74 92 637.46C91.17 638.18 89.38 639.12 88 639.55C86.63 639.98 83.47 642.29 81 644.67C78.53 647.06 76.16 649.01 75.75 649.01C75.34 649 72.97 649.9 70.5 651C68.03 652.1 65.83 653.34 65.63 653.75C65.43 654.16 63.97 654.87 62.38 655.32C60.8 655.78 58.6 656.96 57.5 657.96C56.4 658.96 54.38 660.1 53 660.49C51.63 660.89 45.89 663.42 40.25 666.11C34.61 668.8 29.77 671 29.5 671C29.23 671 26.98 671.9 24.5 673C22.02 674.1 19.77 675.45 19.5 676C19.23 676.55 17.76 677.21 16.25 677.47C14.74 677.73 12.82 678.65 12 679.52C11.18 680.38 9.71 681.07 8.75 681.04C7.79 681.02 5.42 681.67 3.5 682.5C0.17 683.93 0 684.24 0 689C0 692.73 0.32 693.81 1.25 693.26C1.94 692.85 4.08 691.96 6 691.27C7.93 690.59 10.18 690.04 11 690.06C11.82 690.08 13.18 689.34 14 688.43C14.82 687.52 17.75 685.77 20.5 684.53C23.25 683.29 27.07 681.68 29 680.95C30.93 680.23 33.63 678.8 35 677.78C36.38 676.76 37.95 675.95 38.5 675.98C39.05 676.01 43.1 674.22 47.5 672C51.9 669.78 56.17 668 57 668.03C57.83 668.06 59.17 667.35 60 666.45C60.83 665.54 66 662.58 71.5 659.87C77 657.15 83.53 653.4 86 651.53C88.47 649.66 90.95 648.12 91.5 648.1C92.05 648.08 93.4 647.14 94.5 646C95.6 644.86 97.4 643.96 98.5 643.99C99.6 644.02 101.85 642.67 103.5 641C105.15 639.33 106.95 637.98 107.5 638C108.05 638.02 109.85 636.67 111.5 635C113.15 633.33 114.95 631.95 115.5 631.94C116.05 631.93 117.96 630.59 119.75 628.96C121.54 627.33 123.79 626.01 124.75 626.02C125.71 626.03 127.85 624.64 129.5 622.93C131.15 621.22 134.53 618.78 137 617.51C139.47 616.24 142.63 613.98 144 612.5C145.38 611.02 148.53 608.78 151 607.53C153.47 606.27 156.18 604.5 157 603.58C157.82 602.66 158.95 601.94 159.5 601.98C160.05 602.01 161.85 600.64 163.5 598.93C165.15 597.22 170.32 593.28 175 590.17C179.68 587.06 185.75 582.39 188.5 579.78C191.25 577.17 195.3 574.09 197.5 572.92C199.7 571.75 202.63 569.82 204 568.63C205.38 567.44 207.96 565.46 209.75 564.23C211.54 563 213.68 562 214.5 562C215.32 562 217.46 560.65 219.25 559C221.04 557.35 223.85 555.53 225.5 554.94C227.15 554.36 230.19 553.01 232.25 551.94C234.63 550.71 238.01 550 241.5 550C244.53 550 247.17 549.66 247.38 549.25C247.58 548.84 249.05 548.12 250.63 547.66C252.21 547.2 256.43 546.43 260 545.95C263.57 545.47 269.43 544.59 273 544.01C276.57 543.42 281.19 542.73 283.25 542.47C285.31 542.21 287.23 541.55 287.5 541C287.77 540.45 289.8 540 292 540C294.2 540 297.57 539.1 299.5 538C301.66 536.76 304.83 536 307.8 536C310.44 536 313.03 535.59 313.55 535.08C314.07 534.57 317.65 533.92 321.5 533.63C325.35 533.33 330.75 532.81 333.5 532.45C336.25 532.1 338.93 531.4 339.45 530.9C339.97 530.41 344.49 530 349.5 530C354.5 530 359.03 529.57 359.55 529.05C360.07 528.53 367.25 527.88 375.5 527.6C383.75 527.32 395.68 526.59 402 525.98C408.32 525.36 434.65 524.44 460.5 523.92C486.35 523.41 525.73 522.77 548 522.49C574.72 522.17 588.84 522.35 589.5 523.02C590.05 523.58 591.96 524.03 593.75 524.02C595.54 524.01 597.23 524.45 597.5 525C597.79 525.59 603.17 526 610.5 526C617.83 526 623.21 526.41 623.5 527C623.78 527.56 628.07 527.99 633.25 527.98C638.34 527.97 642.95 528.39 643.5 528.91C644.05 529.44 651.02 530.08 659 530.34C666.98 530.61 676.2 531.36 679.5 532.01C682.8 532.67 693.83 533.41 704 533.66C714.17 533.91 722.95 534.55 723.5 535.08C724.05 535.6 729.9 536.02 736.5 536C743.1 535.98 748.95 536.39 749.5 536.9C750.05 537.41 760.4 538.08 772.5 538.38C784.6 538.68 797.65 539.44 801.5 540.07C805.35 540.7 818.85 541.4 831.5 541.62C846.18 541.87 854.84 541.65 855.45 541.01C856.06 540.36 873.87 540 905.7 540C937.57 540 955.18 540.35 955.5 541C955.8 541.59 961.5 542 969.5 542C977.5 542 983.2 542.41 983.5 543C983.77 543.55 986.02 544 988.5 544C990.98 544 993.23 544.45 993.5 545C993.81 545.62 1001.5 546 1013.5 546C1025.5 546 1033.19 546.38 1033.5 547C1033.78 547.56 1038.17 548 1043.5 548C1048.83 548 1053.22 548.44 1053.5 549C1053.78 549.55 1057.83 550 1062.5 550C1067.17 550 1071.22 550.45 1071.5 551C1071.78 551.55 1074.03 552 1076.5 552C1078.97 552 1081.22 552.45 1081.5 553C1081.78 553.55 1085.38 554 1089.5 554C1093.63 554 1097.22 554.45 1097.5 555C1097.79 555.57 1102.5 556 1108.5 556C1114.5 556 1119.21 556.43 1119.5 557C1119.78 557.55 1122.92 558 1126.5 558C1130.08 558 1133.22 558.45 1133.5 559C1133.8 559.6 1140.07 559.99 1149.25 559.98C1157.68 559.97 1164.95 560.4 1165.5 560.93C1166.05 561.46 1172.58 562.1 1180 562.35C1187.42 562.6 1195.53 563.13 1198 563.51C1200.47 563.89 1202.95 564.62 1203.5 565.12C1204.05 565.62 1210.01 566.03 1216.75 566.02C1223.93 566.01 1229.21 566.41 1229.5 567C1229.8 567.61 1236.73 567.99 1247.25 567.98C1257.6 567.97 1264.9 568.37 1265.5 568.98C1266.16 569.65 1282.15 569.84 1312.5 569.53C1337.8 569.28 1365.25 568.81 1373.5 568.48C1381.75 568.16 1388.93 567.47 1389.45 566.95C1389.97 566.43 1396.74 566 1404.5 566C1412.3 566 1419.02 565.57 1419.55 565.03C1420.13 564.44 1440.03 563.9 1470.5 563.66C1498 563.44 1522.41 562.98 1524.75 562.63C1527.09 562.28 1529.22 561.55 1529.5 561C1529.82 560.36 1543.77 559.99 1568.25 559.98C1591.26 559.97 1606.9 560.35 1607.5 560.92C1608.05 561.45 1613.9 562.16 1620.5 562.5C1627.1 562.84 1640.15 563.28 1649.5 563.49C1658.85 563.7 1666.95 563.89 1667.5 563.91C1668.05 563.93 1670.53 565.3 1673 566.95C1675.47 568.61 1678.17 569.98 1679 570.01C1679.83 570.03 1681.17 570.67 1682 571.42C1682.83 572.17 1687.1 574.69 1691.5 577.02C1695.9 579.35 1700.4 581.87 1701.5 582.63C1702.6 583.39 1704.06 584.01 1704.75 584.01C1705.44 584 1708.92 585.8 1712.5 588C1716.08 590.2 1719.56 591.98 1720.25 591.97C1720.94 591.95 1722.74 592.85 1724.25 593.97C1725.76 595.08 1727.34 596.01 1727.75 596.02C1728.16 596.03 1729.4 596.87 1730.5 597.87C1731.6 598.88 1734.65 600.33 1737.28 601.1C1739.91 601.87 1742.05 602.84 1742.03 603.25C1742.01 603.66 1743.23 604.56 1744.74 605.25C1746.24 605.94 1748.27 607.29 1749.24 608.25C1750.21 609.21 1751.79 609.99 1752.75 609.97C1753.71 609.95 1755.4 610.86 1756.5 612C1757.6 613.14 1759.4 614.05 1760.5 614.02C1761.6 614 1763.96 615.34 1765.75 616.99C1767.54 618.65 1769.56 619.98 1770.25 619.97C1770.94 619.95 1772.74 620.85 1774.25 621.97C1775.76 623.08 1777.67 624 1778.5 624C1779.33 624 1781.37 625.01 1783.04 626.25C1784.71 627.49 1787.52 629.72 1789.29 631.21C1791.05 632.7 1793.29 633.94 1794.25 633.96C1795.21 633.98 1797.69 635.06 1799.75 636.35C1801.81 637.65 1804.17 639.47 1805 640.4C1805.83 641.33 1807.17 642.07 1808 642.04C1808.83 642.01 1810.06 642.89 1810.75 644C1811.44 645.1 1813.91 646.53 1816.25 647.17C1818.59 647.81 1821.4 649.06 1822.5 649.94C1823.6 650.82 1825.96 652.54 1827.75 653.77C1829.54 655 1831.67 656 1832.5 656C1833.33 656 1835.37 657.01 1837.04 658.25C1838.71 659.49 1841.52 661.72 1843.29 663.21C1845.05 664.7 1847.74 665.94 1849.25 665.96C1850.76 665.98 1852 666.45 1852 667C1852 667.55 1853.46 668.63 1855.25 669.39C1857.04 670.15 1860.53 672.13 1863 673.77C1865.47 675.42 1868.17 677.51 1869 678.43C1869.83 679.34 1871.51 680.07 1872.75 680.04C1873.99 680.02 1875.22 680.45 1875.5 681C1875.78 681.55 1878.03 683.35 1880.5 685C1882.97 686.65 1885.67 688 1886.5 688C1887.33 688 1889.37 689.01 1891.04 690.25C1892.71 691.49 1895.52 693.64 1897.29 695.03C1899.05 696.42 1902.21 698.45 1904.31 699.53C1906.4 700.61 1909.33 702.67 1910.81 704.1C1912.29 705.53 1914.51 707.21 1915.75 707.85C1917.97 708.98 1918 708.91 1917.75 703.33C1917.51 697.9 1917.34 697.58 1913.7 695.58C1911.61 694.44 1909.53 692.83 1909.08 692C1908.62 691.17 1907.07 690.16 1905.62 689.75C1904.18 689.34 1901.54 688 1899.75 686.77C1897.96 685.54 1895.38 683.57 1894 682.39C1892.63 681.21 1889.7 679.65 1887.5 678.93C1885.3 678.2 1882.15 676.41 1880.5 674.94C1878.85 673.47 1876.38 671.9 1875 671.46C1873.63 671.01 1869.58 668.73 1866 666.39C1862.42 664.06 1858.6 661.24 1857.5 660.13C1856.4 659.02 1853.92 657.78 1852 657.39C1850.08 656.99 1847.15 655.74 1845.5 654.6C1843.85 653.47 1841.38 651.59 1840 650.43C1838.63 649.28 1835.47 647.6 1833 646.7C1830.53 645.81 1827.38 643.92 1826 642.51C1824.63 641.1 1821.96 639.62 1820.08 639.22C1818.2 638.83 1815.95 637.48 1815.08 636.23C1814.21 634.99 1812.49 633.75 1811.25 633.48C1810.01 633.22 1806.86 631.5 1804.25 629.66C1801.64 627.82 1798.38 625.95 1797 625.51C1795.63 625.06 1793.15 623.76 1791.5 622.62C1789.85 621.48 1787.38 619.59 1786 618.43C1784.63 617.28 1781.25 615.49 1778.5 614.47C1775.75 613.45 1772.6 611.66 1771.5 610.5C1770.4 609.34 1767.7 607.6 1765.5 606.65C1763.3 605.69 1760.83 604.48 1760 603.95C1759.17 603.42 1757.49 602.55 1756.25 602C1755.01 601.45 1753.84 600.66 1753.64 600.25C1753.44 599.84 1751.08 598.33 1748.39 596.89C1745.7 595.46 1741.7 593.71 1739.5 593.02C1737.3 592.32 1734.6 590.97 1733.5 590.02C1732.4 589.06 1728.85 586.98 1725.62 585.39C1722.38 583.8 1719.23 581.92 1718.62 581.22C1718 580.52 1716.26 579.73 1714.75 579.47C1713.24 579.21 1711.78 578.55 1711.5 578C1711.22 577.45 1708.86 576.08 1706.25 574.97C1703.64 573.85 1700.83 572.51 1700 571.98C1699.17 571.46 1696.59 570.13 1694.25 569.02C1691.91 567.91 1689.78 566.55 1689.5 566C1689.22 565.45 1686.08 563.65 1682.5 562C1678.92 560.35 1675.78 558.55 1675.5 558C1675.22 557.45 1672.08 555.65 1668.5 554C1664.92 552.35 1661.21 551.11 1660.25 551.25C1659.12 551.41 1658.64 550.97 1658.88 550C1659.09 549.17 1659.75 546.7 1660.34 544.5C1661.07 541.77 1661.6 479.6 1662.03 348C1662.47 212.91 1662.99 154.01 1663.77 150.5C1664.38 147.75 1665.38 143.47 1666 141C1666.62 138.53 1667.55 134.36 1668.06 131.75C1668.58 129.14 1669.42 124.86 1669.94 122.25C1670.45 119.64 1671.4 115.47 1672.03 113C1672.67 110.53 1673.58 105.13 1674.05 101C1674.52 96.88 1675.4 90.58 1676 87C1676.6 83.42 1677.56 76.9 1678.14 72.5C1678.72 68.1 1679.38 49.99 1679.6 32.25L1680 0L1671 0C1670.38 48.44 1669.7 66.1 1669.1 70.5C1668.49 74.9 1667.57 81.42 1667.07 85C1666.56 88.58 1665.7 94.88 1665.16 99C1664.61 103.13 1663.46 109.09 1662.59 112.25C1661.71 115.41 1661.01 119.01 1661.01 120.25C1661.02 121.49 1659.87 127 1658.46 132.5C1657.05 138 1655.38 144.75 1654.76 147.5C1653.95 151.07 1653.41 207.9 1652.87 346C1652.45 452.43 1651.98 541.67 1651.81 544.33C1651.56 548.24 1651.88 549.42 1653.5 550.55C1654.6 551.31 1655.84 551.73 1656.25 551.47C1656.66 551.21 1656.99 551.34 1656.98 551.75C1656.98 552.16 1656.64 553.09 1656.23 553.81C1655.67 554.81 1653.06 554.98 1645 554.55C1639.22 554.25 1628.42 553.5 1621 552.89C1613.58 552.29 1589.95 551.73 1568.5 551.66C1539.23 551.57 1528.13 551.87 1524 552.86C1520.97 553.59 1514.22 554.41 1509 554.68L1499.5 555.17C1499.22 492.65 1498.65 467.98 1498.06 460C1497.46 452.02 1496.5 438.3 1495.93 429.5C1495.36 420.7 1494.57 378.53 1494.19 335.8C1493.64 273.86 1493.23 257.84 1492.19 256.8C1491.44 256.05 1486.96 255.19 1481.69 254.77C1476.64 254.36 1469.8 253.57 1466.5 253C1463.2 252.43 1456.45 251.57 1451.5 251.09C1446.55 250.6 1439.58 249.48 1436 248.6C1432.42 247.71 1427.59 246.54 1425.25 245.99C1422.87 245.44 1405.82 245 1386.5 245C1355.56 245 1351.25 245.2 1344.75 246.93C1340.76 248 1336.26 249.35 1334.75 249.93C1333.24 250.52 1331.78 251.45 1331.5 252C1331.22 252.55 1329.76 253.22 1328.25 253.48C1326.74 253.75 1324.6 254.89 1323.5 256.02C1322.4 257.14 1321.05 258.04 1320.5 258.02C1319.95 257.99 1317.7 259.8 1315.5 262.03L1311.5 266.1C1311.89 283.85 1312.03 293.16 1312.07 298.25C1312.1 303.34 1311.66 314.48 1311.07 323C1310.49 331.52 1309.56 343.45 1309.01 349.5C1308.45 355.55 1307.57 364.32 1307.06 369C1306.54 373.68 1305.63 381.77 1305.04 387C1304.45 392.23 1303.52 400.1 1302.96 404.5C1302.41 408.9 1301.51 418.8 1300.97 426.5C1300.42 434.2 1299.54 446.35 1299 453.5C1298.46 460.65 1297.61 470.32 1297.1 475C1296.59 479.68 1295.8 486.91 1295.34 491.07C1294.88 495.24 1293.98 499.29 1293.34 500.07C1292.71 500.86 1290.75 507.35 1289 514.5C1287.25 521.65 1285.46 527.95 1285.04 528.5C1284.61 529.05 1283.1 533.1 1281.68 537.5C1280.26 541.9 1278.51 545.77 1277.8 546.09C1277.08 546.42 1276.12 548 1275.66 549.59C1275.21 551.19 1273.97 554.41 1272.91 556.75C1271.28 560.38 1270.67 560.91 1268.75 560.35C1267.51 559.99 1258.4 559.32 1248.5 558.86C1238.6 558.39 1224.65 557.62 1217.5 557.13C1210.35 556.64 1202.7 555.68 1200.5 554.99C1198.3 554.3 1189.97 553.36 1182 552.89C1174.03 552.43 1160.08 551.61 1151 551.07C1141.92 550.53 1131.35 549.61 1127.5 549.03C1123.65 548.44 1115.55 547.53 1109.5 546.99C1103.45 546.46 1094.9 545.59 1090.5 545.05C1086.1 544.52 1080.25 543.59 1077.5 543C1074.75 542.4 1068.22 541.45 1063 540.89C1057.78 540.33 1049.22 539.44 1044 538.91C1038.78 538.38 1025.5 537.56 1014.5 537.08C1003.5 536.6 992.25 535.68 989.5 535.03C986.75 534.37 977.98 533.37 970 532.81C962.02 532.24 932.55 531.82 904.5 531.88C876.45 531.94 844.05 532.05 832.5 532.12C820.95 532.19 806.33 531.74 800 531.11C793.67 530.48 779.95 529.51 769.5 528.97C759.05 528.42 744.65 527.53 737.5 526.98C730.35 526.44 715.5 525.58 704.5 525.08C693.5 524.57 681.8 523.65 678.5 523.03C675.2 522.4 666.2 521.46 658.5 520.95C650.8 520.43 640 519.55 634.5 519.01C629 518.46 618.65 517.62 611.5 517.15C604.35 516.67 595.8 515.53 592.5 514.6C587.16 513.1 581.96 512.98 545.5 513.46C522.95 513.75 483.35 514.42 457.5 514.93C431.65 515.45 405.55 516.35 399.5 516.93C393.45 517.52 381.75 518.44 373.5 518.98C365.25 519.52 354 520.41 348.5 520.95C343 521.49 335.8 522.39 332.5 522.96C329.2 523.52 323.35 524.44 319.5 524.99C315.65 525.54 309.57 526.44 306 526.98C302.43 527.52 299.05 528.41 298.5 528.96C297.95 529.5 294.8 530.45 291.5 531.07C288.2 531.68 283.48 532.6 281 533.1C278.52 533.61 273.8 534.47 270.5 535.01C267.2 535.56 261.35 536.4 257.5 536.89C253.65 537.38 249.15 538.47 247.5 539.31C245.77 540.2 241.12 540.97 236.5 541.15L228.5 541.46C228.7 533.74 229.32 529.48 229.99 527C230.67 524.52 231.67 518 232.21 512.5C232.78 506.71 233.49 432.32 233.9 336C234.41 214.86 234.91 168.41 235.75 165.5C236.39 163.3 237.45 159.47 238.11 157C238.78 154.53 239.71 141.7 240.2 128.5C240.68 115.3 241.12 90.1 241.16 72.5C241.21 54.9 240.82 37.35 240.3 33.5C239.78 29.65 238.6 24.48 237.69 22C236.62 19.1 236.02 14.4 236.01 8.75L236 0L226.5 0L226.8 9.75Z" /><path fill-rule="evenodd" class="shp0" d="M1680.05 0L1920 0L1920 1080L0 1080L0 887C0 733.66 0.26 693.85 1.25 693.26C1.94 692.85 4.08 691.96 6 691.27C7.93 690.59 10.18 690.04 11 690.06C11.82 690.08 13.18 689.34 14 688.43C14.82 687.52 17.75 685.77 20.5 684.53C23.25 683.29 27.07 681.68 29 680.95C30.93 680.23 33.63 678.8 35 677.78C36.38 676.76 37.95 675.95 38.5 675.98C39.05 676.01 43.1 674.22 47.5 672C51.9 669.78 56.17 668 57 668.03C57.83 668.06 59.17 667.35 60 666.45C60.83 665.54 66 662.58 71.5 659.87C77 657.15 83.53 653.4 86 651.53C88.47 649.66 90.95 648.12 91.5 648.1C92.05 648.08 93.4 647.14 94.5 646C95.6 644.86 97.4 643.96 98.5 643.99C99.6 644.02 101.85 642.67 103.5 641C105.15 639.33 106.95 637.98 107.5 638C108.05 638.02 109.85 636.67 111.5 635C113.15 633.33 114.95 631.95 115.5 631.94C116.05 631.93 117.96 630.59 119.75 628.96C121.54 627.33 123.79 626.01 124.75 626.02C125.71 626.03 127.85 624.64 129.5 622.93C131.15 621.22 134.53 618.78 137 617.51C139.47 616.24 142.63 613.98 144 612.5C145.38 611.02 148.53 608.78 151 607.53C153.47 606.27 156.18 604.5 157 603.58C157.82 602.66 158.95 601.94 159.5 601.98C160.05 602.01 161.85 600.64 163.5 598.93C165.15 597.22 170.32 593.28 175 590.17C179.68 587.06 185.75 582.39 188.5 579.78C191.25 577.17 195.3 574.09 197.5 572.92C199.7 571.75 202.63 569.82 204 568.63C205.38 567.44 207.96 565.46 209.75 564.23C211.54 563 213.68 562 214.5 562C215.32 562 217.46 560.65 219.25 559C221.04 557.35 223.85 555.53 225.5 554.94C227.15 554.36 230.19 553.01 232.25 551.94C234.63 550.71 238.01 550 241.5 550C244.53 550 247.17 549.66 247.38 549.25C247.58 548.84 249.05 548.12 250.63 547.66C252.21 547.2 256.43 546.43 260 545.95C263.57 545.47 269.43 544.59 273 544.01C276.57 543.42 281.19 542.73 283.25 542.47C285.31 542.21 287.23 541.55 287.5 541C287.77 540.45 289.8 540 292 540C294.2 540 297.57 539.1 299.5 538C301.66 536.76 304.83 536 307.8 536C310.44 536 313.03 535.59 313.55 535.08C314.07 534.57 317.65 533.92 321.5 533.63C325.35 533.33 330.75 532.81 333.5 532.45C336.25 532.1 338.93 531.4 339.45 530.9C339.97 530.41 344.5 530 349.5 530C354.51 530 359.03 529.57 359.55 529.05C360.07 528.53 367.25 527.88 375.5 527.6C383.75 527.32 395.68 526.59 402 525.98C408.32 525.36 434.65 524.44 460.5 523.92C486.35 523.41 525.73 522.77 548 522.49C574.72 522.17 588.84 522.35 589.5 523.02C590.05 523.58 591.96 524.03 593.75 524.02C595.54 524.01 597.23 524.45 597.5 525C597.79 525.59 603.17 526 610.5 526C617.83 526 623.21 526.41 623.5 527C623.78 527.56 628.07 527.99 633.25 527.98C638.34 527.97 642.95 528.39 643.5 528.91C644.05 529.44 651.02 530.08 659 530.34C666.98 530.61 676.2 531.36 679.5 532.01C682.8 532.67 693.83 533.41 704 533.66C714.17 533.91 722.95 534.55 723.5 535.08C724.05 535.6 729.9 536.02 736.5 536C743.1 535.98 748.95 536.39 749.5 536.9C750.05 537.41 760.4 538.08 772.5 538.38C784.6 538.68 797.65 539.44 801.5 540.07C805.35 540.7 818.85 541.4 831.5 541.62C846.18 541.87 854.84 541.65 855.45 541.01C856.06 540.36 873.87 540 905.7 540C937.57 540 955.18 540.35 955.5 541C955.8 541.59 961.5 542 969.5 542C977.5 542 983.2 542.41 983.5 543C983.77 543.55 986.02 544 988.5 544C990.98 544 993.23 544.45 993.5 545C993.81 545.62 1001.5 546 1013.5 546C1025.5 546 1033.19 546.38 1033.5 547C1033.78 547.56 1038.17 548 1043.5 548C1048.83 548 1053.22 548.44 1053.5 549C1053.78 549.55 1057.83 550 1062.5 550C1067.17 550 1071.22 550.45 1071.5 551C1071.78 551.55 1074.03 552 1076.5 552C1078.97 552 1081.22 552.45 1081.5 553C1081.78 553.55 1085.38 554 1089.5 554C1093.63 554 1097.22 554.45 1097.5 555C1097.79 555.57 1102.5 556 1108.5 556C1114.5 556 1119.21 556.43 1119.5 557C1119.78 557.55 1122.92 558 1126.5 558C1130.08 558 1133.22 558.45 1133.5 559C1133.8 559.6 1140.07 559.99 1149.25 559.98C1157.68 559.97 1164.95 560.4 1165.5 560.93C1166.05 561.46 1172.58 562.1 1180 562.35C1187.42 562.6 1195.53 563.13 1198 563.51C1200.47 563.89 1202.95 564.62 1203.5 565.12C1204.05 565.62 1210.01 566.03 1216.75 566.02C1223.93 566.01 1229.21 566.41 1229.5 567C1229.8 567.61 1236.73 567.99 1247.25 567.98C1257.6 567.97 1264.9 568.37 1265.5 568.98C1266.16 569.65 1282.15 569.84 1312.5 569.53C1337.8 569.28 1365.25 568.81 1373.5 568.48C1381.75 568.16 1388.93 567.47 1389.45 566.95C1389.97 566.43 1396.74 566 1404.5 566C1412.3 566 1419.02 565.57 1419.55 565.03C1420.13 564.44 1440.03 563.9 1470.5 563.66C1498 563.44 1522.41 562.98 1524.75 562.63C1527.09 562.28 1529.22 561.55 1529.5 561C1529.82 560.36 1543.77 559.99 1568.25 559.98C1591.26 559.97 1606.9 560.35 1607.5 560.92C1608.05 561.45 1613.9 562.16 1620.5 562.5C1627.1 562.84 1640.15 563.28 1649.5 563.49C1658.85 563.7 1666.95 563.89 1667.5 563.91C1668.05 563.93 1670.53 565.3 1673 566.95C1675.47 568.61 1678.17 569.98 1679 570.01C1679.83 570.03 1681.17 570.67 1682 571.42C1682.83 572.17 1687.1 574.69 1691.5 577.02C1695.9 579.35 1700.4 581.87 1701.5 582.63C1702.6 583.39 1704.06 584.01 1704.75 584.01C1705.44 584 1708.92 585.8 1712.5 588C1716.08 590.2 1719.56 591.98 1720.25 591.97C1720.94 591.95 1722.74 592.85 1724.25 593.97C1725.76 595.08 1727.34 596.01 1727.75 596.02C1728.16 596.03 1729.4 596.87 1730.5 597.87C1731.6 598.88 1734.65 600.33 1737.28 601.1C1739.91 601.87 1742.05 602.84 1742.03 603.25C1742.01 603.66 1743.23 604.56 1744.74 605.25C1746.24 605.94 1748.27 607.29 1749.24 608.25C1750.21 609.21 1751.79 609.99 1752.75 609.97C1753.71 609.95 1755.4 610.86 1756.5 612C1757.6 613.14 1759.4 614.05 1760.5 614.02C1761.6 614 1763.96 615.34 1765.75 616.99C1767.54 618.65 1769.56 619.98 1770.25 619.97C1770.94 619.95 1772.74 620.85 1774.25 621.97C1775.76 623.08 1777.67 624 1778.5 624C1779.33 624 1781.37 625.01 1783.04 626.25C1784.71 627.49 1787.52 629.72 1789.29 631.21C1791.05 632.7 1793.29 633.94 1794.25 633.96C1795.21 633.98 1797.69 635.06 1799.75 636.35C1801.81 637.65 1804.17 639.47 1805 640.4C1805.83 641.33 1807.17 642.07 1808 642.04C1808.83 642.01 1810.06 642.89 1810.75 644C1811.44 645.1 1813.91 646.53 1816.25 647.17C1818.59 647.81 1821.4 649.06 1822.5 649.94C1823.6 650.82 1825.96 652.54 1827.75 653.77C1829.54 655 1831.67 656 1832.5 656C1833.33 656 1835.37 657.01 1837.04 658.25C1838.71 659.49 1841.52 661.72 1843.29 663.21C1845.05 664.7 1847.74 665.94 1849.25 665.96C1850.76 665.98 1852 666.45 1852 667C1852 667.55 1853.46 668.63 1855.25 669.39C1857.04 670.15 1860.53 672.13 1863 673.77C1865.47 675.42 1868.17 677.51 1869 678.43C1869.83 679.34 1871.51 680.07 1872.75 680.04C1873.99 680.02 1875.22 680.45 1875.5 681C1875.78 681.55 1878.03 683.35 1880.5 685C1882.97 686.65 1885.67 688 1886.5 688C1887.33 688 1889.37 689.01 1891.04 690.25C1892.71 691.49 1895.52 693.64 1897.29 695.03C1899.05 696.42 1902.21 698.45 1904.31 699.53C1906.4 700.61 1909.33 702.67 1910.81 704.1C1912.29 705.53 1914.51 707.21 1915.75 707.85C1917.97 708.98 1918 708.91 1917.75 703.33C1917.51 697.9 1917.34 697.58 1913.7 695.58C1911.61 694.44 1909.53 692.83 1909.08 692C1908.62 691.17 1907.07 690.16 1905.62 689.75C1904.18 689.34 1901.54 688 1899.75 686.77C1897.96 685.54 1895.38 683.57 1894 682.39C1892.63 681.21 1889.7 679.65 1887.5 678.93C1885.3 678.2 1882.15 676.41 1880.5 674.94C1878.85 673.47 1876.38 671.9 1875 671.46C1873.63 671.01 1869.58 668.73 1866 666.39C1862.42 664.06 1858.6 661.24 1857.5 660.13C1856.4 659.02 1853.92 657.78 1852 657.39C1850.08 656.99 1847.15 655.74 1845.5 654.6C1843.85 653.47 1841.38 651.59 1840 650.43C1838.63 649.28 1835.47 647.6 1833 646.7C1830.53 645.81 1827.38 643.92 1826 642.51C1824.63 641.1 1821.96 639.62 1820.08 639.22C1818.2 638.83 1815.95 637.48 1815.08 636.23C1814.21 634.99 1812.49 633.75 1811.25 633.48C1810.01 633.22 1806.86 631.5 1804.25 629.66C1801.64 627.82 1798.38 625.95 1797 625.51C1795.63 625.06 1793.15 623.76 1791.5 622.62C1789.85 621.48 1787.38 619.59 1786 618.43C1784.63 617.28 1781.25 615.49 1778.5 614.47C1775.75 613.45 1772.6 611.66 1771.5 610.5C1770.4 609.34 1767.7 607.6 1765.5 606.65C1763.3 605.69 1760.83 604.48 1760 603.95C1759.17 603.42 1757.49 602.55 1756.25 602C1755.01 601.45 1753.84 600.66 1753.64 600.25C1753.44 599.84 1751.08 598.33 1748.39 596.89C1745.7 595.46 1741.7 593.71 1739.5 593.02C1737.3 592.32 1734.6 590.97 1733.5 590.02C1732.4 589.06 1728.85 586.98 1725.62 585.39C1722.38 583.8 1719.23 581.92 1718.62 581.22C1718 580.52 1716.26 579.73 1714.75 579.47C1713.24 579.21 1711.78 578.55 1711.5 578C1711.22 577.45 1708.86 576.08 1706.25 574.97C1703.64 573.85 1700.83 572.51 1700 571.98C1699.17 571.46 1696.59 570.13 1694.25 569.02C1691.91 567.91 1689.78 566.55 1689.5 566C1689.22 565.45 1686.08 563.65 1682.5 562C1678.92 560.35 1675.78 558.55 1675.5 558C1675.22 557.45 1672.08 555.65 1668.5 554C1664.92 552.35 1661.21 551.11 1660.25 551.25C1659.12 551.41 1658.64 550.97 1658.88 550C1659.09 549.17 1659.75 546.7 1660.34 544.5C1661.07 541.77 1661.6 479.6 1662.03 348C1662.47 212.91 1662.99 154.01 1663.77 150.5C1664.38 147.75 1665.38 143.47 1666 141C1666.62 138.53 1667.53 134.47 1668.03 132C1668.53 129.53 1669.37 125.25 1669.91 122.5C1670.44 119.75 1671.4 115.47 1672.03 113C1672.67 110.53 1673.58 105.13 1674.05 101C1674.52 96.88 1675.4 90.58 1676 87C1676.6 83.42 1677.56 76.9 1678.14 72.5C1678.72 68.1 1679.39 49.99 1679.63 32.25L1680.05 0ZM236 0L1671 0L1670.6 31.25C1670.38 48.44 1669.7 66.1 1669.1 70.5C1668.49 74.9 1667.57 81.42 1667.07 85C1666.56 88.58 1665.7 94.88 1665.16 99C1664.61 103.13 1663.46 109.09 1662.59 112.25C1661.71 115.41 1661.01 119.01 1661.01 120.25C1661.02 121.49 1659.87 127 1658.46 132.5C1657.05 138 1655.38 144.75 1654.76 147.5C1653.95 151.07 1653.41 207.9 1652.87 346C1652.45 452.43 1651.98 541.67 1651.81 544.33C1651.56 548.24 1651.88 549.42 1653.5 550.55C1654.6 551.31 1655.84 551.73 1656.25 551.47C1656.66 551.21 1656.99 551.34 1656.98 551.75C1656.98 552.16 1656.64 553.09 1656.23 553.81C1655.67 554.81 1653.06 554.98 1645 554.55C1639.22 554.25 1628.42 553.5 1621 552.89C1613.58 552.29 1589.95 551.73 1568.5 551.66C1539.23 551.57 1528.13 551.87 1524 552.86C1520.97 553.59 1514.22 554.41 1499.5 555.17L1499.32 514.84C1499.22 492.65 1498.65 467.98 1498.06 460C1497.46 452.02 1496.5 438.3 1495.93 429.5C1495.36 420.7 1494.57 378.53 1494.19 335.8C1493.64 273.86 1493.23 257.84 1492.19 256.8C1491.44 256.05 1486.96 255.19 1481.69 254.77C1476.64 254.36 1469.8 253.57 1466.5 253C1463.2 252.43 1456.45 251.57 1451.5 251.09C1446.55 250.6 1439.58 249.48 1436 248.6C1432.42 247.71 1427.59 246.54 1425.25 245.99C1422.87 245.44 1405.82 245 1386.5 245C1355.56 245 1351.25 245.2 1344.75 246.93C1340.76 248 1336.26 249.35 1334.75 249.93C1333.24 250.52 1331.78 251.45 1331.5 252C1331.22 252.55 1329.76 253.22 1328.25 253.48C1326.74 253.75 1324.6 254.89 1323.5 256.02C1322.4 257.14 1321.05 258.04 1320.5 258.02C1319.95 257.99 1317.7 259.8 1311.5 266.1L1311.75 277.55C1311.89 283.85 1312.03 293.16 1312.07 298.25C1312.1 303.34 1311.66 314.48 1311.07 323C1310.49 331.52 1309.56 343.45 1309.01 349.5C1308.45 355.55 1307.57 364.32 1307.06 369C1306.54 373.68 1305.63 381.77 1305.04 387C1304.45 392.23 1303.52 400.1 1302.96 404.5C1302.41 408.9 1301.51 418.8 1300.97 426.5C1300.42 434.2 1299.54 446.35 1299 453.5C1298.46 460.65 1297.61 470.32 1297.1 475C1296.59 479.68 1295.8 486.91 1295.34 491.07C1294.88 495.24 1293.98 499.29 1293.34 500.07C1292.71 500.86 1290.75 507.35 1289 514.5C1287.25 521.65 1285.46 527.95 1285.04 528.5C1284.61 529.05 1283.1 533.1 1281.68 537.5C1280.26 541.9 1278.51 545.77 1277.8 546.09C1277.08 546.42 1276.12 548 1275.66 549.59C1275.21 551.19 1273.97 554.41 1272.91 556.75C1271.28 560.38 1270.67 560.91 1268.75 560.35C1267.51 559.99 1258.4 559.32 1248.5 558.86C1238.6 558.39 1224.65 557.62 1217.5 557.13C1210.35 556.64 1202.7 555.68 1200.5 554.99C1198.3 554.3 1189.97 553.36 1182 552.89C1174.03 552.43 1160.08 551.61 1151 551.07C1141.92 550.53 1131.35 549.61 1127.5 549.03C1123.65 548.44 1115.55 547.53 1109.5 546.99C1103.45 546.46 1094.9 545.59 1090.5 545.05C1086.1 544.52 1080.25 543.59 1077.5 543C1074.75 542.4 1068.22 541.45 1063 540.89C1057.78 540.33 1049.22 539.44 1044 538.91C1038.78 538.38 1025.5 537.56 1014.5 537.08C1003.5 536.6 992.25 535.68 989.5 535.03C986.75 534.37 977.98 533.37 970 532.81C962.02 532.24 932.55 531.82 904.5 531.88C876.45 531.94 844.05 532.05 832.5 532.12C820.95 532.19 806.33 531.74 800 531.11C793.67 530.48 779.95 529.51 769.5 528.97C759.05 528.42 744.65 527.53 737.5 526.98C730.35 526.44 715.5 525.58 704.5 525.08C693.5 524.57 681.8 523.65 678.5 523.03C675.2 522.4 666.2 521.46 658.5 520.95C650.8 520.43 640 519.55 634.5 519.01C629 518.46 618.65 517.62 611.5 517.15C604.35 516.67 595.8 515.53 592.5 514.6C587.16 513.1 581.96 512.98 545.5 513.46C522.95 513.75 483.35 514.42 457.5 514.93C431.65 515.45 405.55 516.35 399.5 516.93C393.45 517.52 381.75 518.44 373.5 518.98C365.25 519.52 354 520.41 348.5 520.95C343 521.49 335.8 522.39 332.5 522.96C329.2 523.52 323.35 524.44 319.5 524.99C315.65 525.54 309.57 526.44 306 526.98C302.43 527.52 299.05 528.41 298.5 528.96C297.95 529.5 294.8 530.45 291.5 531.07C288.2 531.68 283.48 532.6 281 533.1C278.52 533.61 273.8 534.47 270.5 535.01C267.2 535.56 261.35 536.4 257.5 536.89C253.65 537.38 249.15 538.47 247.5 539.31C245.77 540.2 241.12 540.97 228.5 541.46L228.63 536.48C228.7 533.74 229.32 529.48 229.99 527C230.67 524.52 231.67 518 232.21 512.5C232.78 506.71 233.49 432.32 233.9 336C234.42 211.22 234.9 168.43 235.8 165.25C236.46 162.91 237.52 159.09 238.16 156.75C238.8 154.41 239.71 141.7 240.2 128.5C240.68 115.3 241.12 90.1 241.16 72.5C241.21 54.9 240.82 37.35 240.3 33.5C239.78 29.65 238.6 24.48 237.69 22C236.62 19.1 236.02 14.4 236.01 8.75L236 0Z" /><path class="shp1" d="M370.5 163.9C369.4 164.34 368.16 165.89 367.75 167.35C367.34 168.81 367.45 171.13 368 172.5C368.55 173.88 369.9 175.22 371 175.5C372.1 175.78 373.45 175.78 374 175.5C374.66 175.17 375.17 200.58 375.5 250.25C375.77 291.64 376 336.41 376 349.75C376 363.09 375.89 378.68 375.75 384.4C375.53 393.62 375.73 395.03 377.5 396.92C378.6 398.09 381.98 399.74 385 400.58C388.02 401.42 391.85 402.53 393.5 403.04C395.15 403.56 398.07 403.98 400 403.99C401.93 403.99 405.98 404.9 409 406C414.12 407.87 416.96 408 450.25 408C484.64 408 486.1 408.08 488.75 410.03C490.26 411.15 492.18 412.06 493 412.06C493.82 412.05 495.33 412.83 496.35 413.78C497.92 415.24 501.4 415.62 519.35 416.26C530.98 416.68 548.38 417.27 558 417.56C567.63 417.85 576.4 417.87 577.5 417.61C578.6 417.34 580.81 415.18 582.42 412.81C584.02 410.44 585.78 406.25 586.33 403.5C586.88 400.7 587.66 366.13 588.09 325C588.51 284.57 589.26 246.1 589.75 239.5C590.25 232.9 591.26 225.93 592 224C592.74 222.07 593.7 215.32 594.14 209C594.57 202.68 595.19 194.8 595.51 191.5C595.94 186.99 595.7 184.94 594.54 183.25C593.69 182.01 590.19 179.68 586.75 178.06C583.31 176.45 576.9 174.24 572.5 173.15C568.1 172.06 561.8 170.6 558.5 169.91C555.2 169.21 550.7 167.99 548.5 167.2C546.3 166.4 540.9 165.3 536.5 164.75C532 164.19 494.34 163.61 450.5 163.43C407.6 163.25 371.6 163.47 370.5 163.9Z" /><path class="shp0" d="M384.48 247.25C384.76 288.64 385.03 334.65 385.08 349.5C385.13 364.35 384.91 379.76 384.58 383.75C384.26 387.74 384.34 391.01 384.75 391.03C385.16 391.05 388.65 391.93 392.5 393C396.35 394.07 400.85 394.95 402.5 394.96C404.15 394.96 408.2 395.88 411.5 397C417.07 398.89 419.95 399.03 452 399.02C478.66 399.01 487.07 399.31 489 400.33C490.38 401.06 493.3 402.24 495.5 402.95C497.7 403.67 500.18 404.84 501 405.56C502.08 406.5 508.14 407.03 522.5 407.44C533.5 407.76 549.48 408.24 558 408.51C573.24 409 573.53 408.97 575 406.76C575.83 405.52 576.9 402.7 577.4 400.5C577.89 398.3 578.65 363.2 579.07 322.5C579.5 281.8 580.25 243.1 580.75 236.5C581.24 229.9 582.25 223.15 582.99 221.5C583.73 219.85 584.68 213.1 585.11 206.5C585.53 199.9 586.17 193.15 586.53 191.5C587.14 188.68 586.9 188.37 582.34 186.3C579.68 185.1 575.81 183.63 573.75 183.05C571.69 182.47 568.54 181.56 566.75 181.01C564.96 180.47 562.38 180.01 561 180C559.63 179.99 557.15 179.57 555.5 179.07C553.85 178.57 549.58 177.24 546 176.11C542.42 174.97 536.91 174.03 533.75 174.02C530.59 174.01 527.77 173.55 527.5 173C527.17 172.35 502.16 172 455.49 172L383.97 172L384.48 247.25Z" /><path class="shp1" d="M414.55 195.18C414.24 195.91 413.37 198.97 412.6 202C411.51 206.26 411.16 217.72 411.03 253C410.93 278.02 410.55 298.95 410.18 299.5C409.81 300.05 409.17 315.13 408.76 333C408.35 350.88 407.9 367.67 407.76 370.33C407.55 374.2 407.9 375.45 409.5 376.6C410.6 377.39 413.55 378.03 416.05 378.02C418.55 378.01 421.03 377.55 421.55 376.99C422.16 376.35 430.98 376.13 446 376.39C458.93 376.61 472.65 377.23 476.5 377.76C480.35 378.29 484.85 379.17 486.5 379.71C488.15 380.25 490.63 381.29 492 382.02C493.38 382.75 496.19 383.72 498.25 384.18C500.31 384.63 503.91 385.48 506.25 386.08C508.59 386.67 512.98 387.53 516 388C519.02 388.47 523.52 389.4 526 390.07C528.48 390.74 535.34 391.45 541.25 391.64C550.94 391.96 552.2 391.8 554 390C555.87 388.13 555.97 386.94 555.63 372.25C555.42 363.59 554.78 354.25 554.19 351.5C553.6 348.75 552.65 344.59 552.06 342.25C551.48 339.91 550.52 336.09 549.94 333.75C549.35 331.41 548.38 327.25 547.78 324.5C547.18 321.75 546.7 310.95 546.71 300.5C546.72 290.05 547.26 278.57 547.9 275C548.54 271.43 549.48 265.57 549.97 262C550.47 258.43 551.18 253.93 551.56 252C551.94 250.07 552.85 247.82 553.59 247C554.34 246.18 555.47 243.93 556.11 242C556.75 240.07 557.68 235.35 558.17 231.5C558.67 227.65 559.31 222.03 559.6 219C559.98 215.04 559.71 212.94 558.65 211.5C557.32 209.72 555.51 209.42 541.83 208.76C533.4 208.35 518.85 207.58 509.5 207.04C500.15 206.51 488.9 205.59 484.5 205C480.1 204.41 468.63 203.48 459 202.93C449.38 202.39 437.23 201.71 432 201.42L422.5 200.91C420.74 195.28 419.84 194.42 417.8 194.18C416.24 194 414.86 194.43 414.55 195.18Z" /><path class="shp0" d="M421.2 212.43C420.35 214.25 420 224.15 420 246.5C420 275.85 420.12 278 421.75 277.96C422.71 277.93 424.18 278.63 425 279.5C426.13 280.7 428.42 281.08 434.25 281.04C439.76 281.01 443.3 280.42 446.5 279C449.26 277.77 451.39 276.03 452 274.5C452.55 273.13 453 269.75 453 267C453 264.25 453.44 260.09 453.98 257.75C454.52 255.41 455.87 249.79 456.98 245.25C458.25 240.08 459 233.64 459 228C459 223.05 459.45 217.88 460 216.5C460.69 214.77 461.77 214 463.5 214C465 214 466.4 214.8 467 216C467.57 217.13 467.85 223.31 467.65 230.25C467.46 236.99 466.75 244.53 466.09 247C465.42 249.47 464.42 253.75 463.87 256.5C463.32 259.25 462.53 264.88 462.13 269C461.72 273.13 460.74 277.75 459.94 279.28C459.15 280.81 456.48 283.38 454 285C451.52 286.61 448.71 287.94 447.75 287.96C446.79 287.98 445.77 288.45 445.5 289C445.21 289.58 440.43 289.99 434.25 289.98C428.34 289.98 422.82 289.54 422 289.01C420.73 288.21 420.37 289.27 419.68 295.78C419.23 300.03 418.56 318.13 418.18 336C417.81 353.88 417.5 368.62 417.5 368.76C417.5 368.91 418.74 368.57 420.25 368.01C421.76 367.46 429.3 367 437 367L451 367C451.03 340.76 450.68 336.15 449.77 335.23C448.89 334.36 445.02 333.97 437.25 333.98C431.06 333.99 425.1 333.55 424 333C422.8 332.4 422 331 422 329.5C422 327.7 422.77 326.7 424.75 325.93C426.37 325.29 432.76 324.99 440.33 325.18L453.16 325.5L460 333C460 360.92 460.24 363.25 461.75 364.83C462.71 365.84 465.3 366.93 467.5 367.26C469.7 367.59 474.88 368.3 479 368.83C483.13 369.36 488.07 370.36 490 371.05C491.93 371.73 493.95 372.63 494.5 373.04C495.05 373.45 500.23 374.96 506 376.4C511.77 377.85 517.63 379.03 519 379.04C520.38 379.05 524.65 379.93 528.5 381C532.35 382.07 538.09 382.95 541.25 382.97L547 383C547 366.73 546.55 360.09 546.01 357.75C545.46 355.41 543.71 347.88 542.1 341C540.5 334.13 538.66 326.02 538.02 323C537.24 319.35 537 310.93 537.32 298C537.58 287.27 538.29 275.8 538.89 272.5C539.49 269.2 540.42 263.35 540.94 259.5C541.46 255.65 542.39 250.47 543.01 248C543.63 245.53 544.71 242.82 545.41 242C546.12 241.18 547.04 239.6 547.46 238.5C547.88 237.4 548.6 233.35 549.05 229.5C549.5 225.65 550.12 221.49 550.43 220.25C551 218.02 550.89 218 537.75 217.53C530.46 217.27 520.34 216.82 515.25 216.53C506.25 216.01 506.03 216.05 507 218C507.55 219.1 508 223.38 508 227.5C508 232.62 507.46 236.03 506.3 238.25C505.36 240.04 504.27 243.97 503.88 247C503.48 250.03 502.61 254.53 501.94 257C501.28 259.48 500.57 265.44 500.37 270.25C500.02 278.56 500.11 279.04 502.25 279.89C503.49 280.37 505.4 281.74 506.5 282.92C508.29 284.84 509.54 285.06 518.25 285.03C523.61 285.01 529.01 285.38 530.25 285.85C531.49 286.31 532.84 287.44 533.25 288.35C533.74 289.43 533.31 290.69 532 292C530.21 293.79 528.67 294 517.5 294L505 294C498.41 288.64 495.38 286.21 494 285.14C491.69 283.34 491.47 282.46 491.14 273.35C490.87 265.81 491.29 261.27 492.95 254C494.15 248.78 495.99 241.57 497.05 238C498.11 234.43 498.98 229.14 498.99 226.25C499 223.36 499.45 219.88 500 218.5C500.98 216.05 500.89 215.99 495.75 215.52C492.86 215.26 486.68 214.55 482 213.96C477.32 213.37 466.07 212.46 457 211.96C447.93 211.45 436.43 210.77 431.45 210.45C422.46 209.87 422.38 209.89 421.2 212.43ZM1349.5 255.18C1347.85 255.73 1345.15 256.58 1343.5 257.07C1341.85 257.57 1339.6 257.97 1338.5 257.96C1337.4 257.94 1335.6 258.85 1334.5 259.97C1333.4 261.09 1332.16 262 1331.75 262C1331.34 262 1329.09 263.3 1326.75 264.88C1324.41 266.47 1321.93 268.38 1321.23 269.13C1320.31 270.12 1320.11 272.72 1320.54 278.5C1320.86 282.9 1321.11 291.9 1321.1 298.5C1321.09 305.1 1320.63 317.25 1320.07 325.5C1319.51 333.75 1318.6 345.45 1318.05 351.5C1317.5 357.55 1316.59 366.55 1316.04 371.5C1315.48 376.45 1314.59 384.55 1314.05 389.5C1313.51 394.45 1312.58 401.88 1311.97 406C1311.36 410.13 1310.45 420.02 1309.95 428C1309.44 435.98 1308.59 448.35 1308.06 455.5C1307.53 462.65 1306.62 472.21 1306.05 476.75C1305.47 481.29 1304.65 488.49 1304.22 492.75C1303.8 497.01 1302.67 501.96 1301.72 503.75C1300.78 505.54 1299.99 507.79 1299.99 508.75C1299.98 509.71 1299.57 511.85 1299.07 513.5C1298.58 515.15 1297.28 519.2 1296.2 522.5C1295.11 525.8 1293.74 529.85 1293.16 531.5C1292.57 533.15 1291.41 536.98 1290.57 540C1289.73 543.02 1287.91 547.19 1286.52 549.25C1285.14 551.31 1284 553.45 1284 554C1284 554.55 1283.33 556.35 1282.5 558L1281 561C1339.51 560.3 1363.92 559.62 1373 559.03C1382.08 558.43 1396.03 557.49 1404 556.93C1411.97 556.37 1434.92 555.69 1455 555.42L1491.5 554.93C1491.11 523.6 1490.78 505.95 1490.52 495.5C1490.26 485.05 1489.59 470.2 1489.03 462.5C1488.47 454.8 1487.53 440.85 1486.94 431.5C1486.36 422.15 1485.68 380.64 1485.44 339.25L1485 264C1473.76 263.33 1467.58 262.63 1464 262.02C1460.42 261.4 1453.67 260.52 1449 260.05C1444.33 259.59 1438.47 258.68 1436 258.04C1433.53 257.4 1429.25 256.38 1426.5 255.78C1423.58 255.15 1407.16 254.59 1387 254.44C1366.13 254.29 1351.31 254.58 1349.5 255.18Z" /><path class="shp1" d="M500.5 330.89C497.08 332.53 496.25 333.58 494.76 338.15C493.63 341.64 493.02 346.72 493.01 352.75C493.01 357.84 493.38 363.01 493.85 364.25C494.31 365.49 495.44 366.84 496.35 367.25C497.43 367.74 498.69 367.31 500 366C501.7 364.3 502 362.67 502 355C502 350.05 502.56 344.2 503.25 342C504.45 338.15 504.67 338 508.75 338C511.09 338 513.23 338.45 513.5 339C513.78 339.57 518.33 340 524 340C532.67 340 534.27 339.73 536 338C537.56 336.44 537.78 335.56 537 334C536.45 332.9 535.89 331.96 535.75 331.9C535.61 331.85 530.77 331.39 525 330.89C519.23 330.39 512.25 329.76 509.5 329.48C505.84 329.12 503.43 329.5 500.5 330.89ZM1431 402.66C1427.97 403.49 1424.71 404.92 1423.75 405.84C1422.78 406.75 1421.88 408.59 1421.75 409.93C1421.59 411.44 1420.37 412.97 1418.5 414C1416.85 414.91 1415.05 416.57 1414.5 417.7C1413.95 418.82 1412.6 420.75 1411.5 421.98C1409.77 423.9 1409.5 425.62 1409.5 434.5C1409.5 442.55 1409.85 445.19 1411.12 446.65C1412.01 447.67 1413.17 449.85 1413.69 451.5C1414.33 453.48 1415.64 454.84 1417.58 455.5C1419.18 456.05 1421.63 457.29 1423 458.26C1425 459.66 1427.58 460.01 1435.92 460.01L1446.34 460L1459.95 446.5C1459.99 436.92 1459.19 432.28 1458 429C1456.9 425.98 1455.99 422.38 1455.99 421C1455.98 419.63 1455.55 417.15 1455.02 415.5C1454.5 413.85 1453.83 411.26 1453.53 409.75C1453.24 408.24 1452.21 406.71 1451.25 406.35C1450.29 405.99 1448.6 404.85 1447.5 403.81C1446.34 402.72 1443.6 401.76 1441 401.54C1438.53 401.32 1434.03 401.83 1431 402.66Z" /><path class="shp0" d="M1438.87 412.59C1437.57 413.26 1435.15 414.4 1433.5 415.13C1431.85 415.85 1429.15 417.61 1427.5 419.03C1425.85 420.44 1424.05 421.8 1423.5 422.05C1422.95 422.3 1421.49 423.96 1420.25 425.75C1418.58 428.16 1418 430.43 1418 434.5C1418 437.72 1418.73 441.48 1419.75 443.56C1420.71 445.52 1422.4 447.31 1423.5 447.54C1424.6 447.78 1426.17 448.67 1427 449.53C1428.09 450.67 1430.44 451.08 1435.63 451.04C1442.68 451 1442.81 450.95 1446.93 446.75C1449.22 444.41 1451.07 441.6 1451.05 440.5C1451.03 439.4 1449.62 432.88 1447.91 426C1445.78 417.43 1444.25 413.16 1443.02 412.43C1441.73 411.66 1440.59 411.7 1438.87 412.59Z" /></g></svg>